<svg id="svg" version="1.1" xmlns="http://www.w3.org/2000/svg" xmlns:xlink="http://www.w3.org/1999/xlink" width="400" height="400" viewBox="0, 0, 400,400"><g id="svgg"><path id="path0" d="M342.053 0.600 C 342.002 1.606,342.655 2.679,343.067 2.267 C 343.237 2.096,343.178 1.831,342.935 1.678 C 342.692 1.525,342.403 1.040,342.293 0.600 L 342.093 -0.200 342.053 0.600 M55.170 0.500 C 54.728 1.988,54.815 2.534,55.376 1.792 C 56.080 0.860,56.154 0.400,55.600 0.400 C 55.380 0.400,55.187 0.445,55.170 0.500 M345.200 8.600 C 345.200 8.930,345.380 9.200,345.600 9.200 C 345.820 9.200,346.000 8.930,346.000 8.600 C 346.000 8.270,345.820 8.000,345.600 8.000 C 345.380 8.000,345.200 8.270,345.200 8.600 M347.277 18.200 C 347.337 19.785,347.488 19.894,348.243 18.900 C 349.044 17.846,348.929 16.800,348.012 16.800 C 347.368 16.800,347.234 17.056,347.277 18.200 M348.000 29.576 C 348.000 31.323,348.180 32.864,348.400 33.000 C 348.655 33.157,348.800 32.004,348.800 29.824 C 348.800 27.808,348.636 26.400,348.400 26.400 C 348.167 26.400,348.000 27.725,348.000 29.576 M180.400 69.797 C 176.915 71.285,175.767 75.545,177.185 81.723 C 177.397 82.645,177.867 85.020,178.229 87.000 C 178.592 88.980,179.249 91.950,179.690 93.600 C 180.131 95.250,180.897 98.310,181.393 100.400 C 181.889 102.490,182.744 105.820,183.293 107.800 C 184.493 112.130,185.492 115.962,186.055 118.400 C 191.763 143.113,191.384 144.618,179.000 146.393 C 175.609 146.879,171.869 147.677,170.400 148.229 C 168.970 148.766,166.540 149.464,165.000 149.779 C 163.460 150.094,161.480 150.654,160.600 151.024 C 150.768 155.157,141.880 154.262,136.400 148.588 C 131.671 143.692,123.557 141.829,118.583 144.497 C 112.073 147.990,110.240 151.128,112.800 154.400 C 113.230 154.950,113.586 155.551,113.591 155.736 C 113.596 155.921,114.826 157.451,116.325 159.136 C 119.256 162.432,121.600 165.371,121.600 165.750 C 121.600 165.879,122.233 166.974,123.006 168.183 C 123.780 169.392,125.068 171.691,125.869 173.291 C 126.670 174.891,127.727 176.840,128.218 177.621 C 128.709 178.403,130.184 181.103,131.497 183.621 C 132.809 186.140,134.831 189.800,135.990 191.756 C 137.149 193.712,138.851 196.772,139.772 198.556 C 140.693 200.340,142.340 203.060,143.433 204.600 C 145.424 207.406,146.218 208.707,151.614 218.000 C 156.243 225.973,160.868 230.800,163.878 230.800 C 165.175 230.800,169.630 229.069,171.601 227.799 C 172.774 227.044,175.458 225.594,177.567 224.577 C 179.675 223.560,182.255 222.295,183.300 221.764 C 185.553 220.621,185.848 220.603,188.456 221.456 C 189.750 221.879,190.576 222.412,190.783 222.956 C 191.197 224.044,191.604 239.561,191.802 261.800 C 191.889 271.480,192.153 285.700,192.389 293.400 C 192.625 301.100,192.701 308.615,192.558 310.099 C 191.854 317.383,195.255 332.233,198.650 336.702 C 200.392 338.994,200.482 339.049,203.000 339.349 C 211.399 340.349,214.233 329.544,213.845 298.000 C 213.749 290.190,213.834 280.020,214.035 275.400 C 214.236 270.780,214.483 255.570,214.583 241.600 C 214.683 227.630,214.773 216.079,214.783 215.931 C 214.820 215.347,217.924 214.680,220.785 214.641 C 224.291 214.593,226.642 215.599,233.090 219.905 C 240.524 224.870,245.900 224.141,249.611 217.666 C 250.268 216.520,250.433 216.264,256.737 206.600 C 263.248 196.617,263.767 195.841,264.313 195.261 C 264.595 194.962,265.205 193.970,265.668 193.058 C 266.131 192.146,267.991 189.240,269.802 186.600 C 271.613 183.960,273.370 181.260,273.706 180.600 C 274.043 179.940,275.303 178.199,276.507 176.730 C 277.711 175.262,279.485 172.775,280.448 171.204 C 281.412 169.634,283.043 167.356,284.073 166.143 C 288.665 160.735,288.207 156.159,282.597 151.374 C 281.323 150.288,279.003 148.170,277.441 146.668 C 275.878 145.165,273.610 143.427,272.400 142.806 C 271.115 142.147,268.537 140.071,266.200 137.813 C 264.000 135.688,261.570 133.595,260.800 133.161 C 260.030 132.728,258.500 131.645,257.400 130.754 C 253.115 127.284,252.447 126.898,250.247 126.623 C 247.011 126.219,244.426 127.159,237.400 131.298 C 228.625 136.466,219.239 139.239,217.250 137.250 C 216.425 136.425,216.400 136.083,216.400 125.414 C 216.400 112.079,215.811 114.002,222.833 104.400 C 229.076 95.863,228.043 90.412,219.389 86.225 C 218.075 85.590,216.409 84.559,215.686 83.935 C 214.963 83.311,214.033 82.800,213.619 82.800 C 212.323 82.800,211.591 82.343,210.974 81.151 C 210.576 80.380,209.553 79.609,207.889 78.826 C 206.520 78.181,204.050 76.938,202.400 76.064 C 189.242 69.092,184.926 67.863,180.400 69.797 M217.600 99.955 C 217.600 101.078,215.502 104.612,213.942 106.116 C 212.743 107.272,212.953 104.890,214.200 103.200 C 214.750 102.455,215.200 101.601,215.200 101.304 C 215.200 100.786,216.930 98.800,217.382 98.800 C 217.502 98.800,217.600 99.320,217.600 99.955 M212.626 108.300 C 212.293 109.710,210.663 111.206,210.476 110.273 C 210.290 109.344,211.530 107.200,212.254 107.200 C 212.741 107.200,212.827 107.454,212.626 108.300 M234.922 150.260 C 236.326 150.665,235.305 151.404,232.968 151.674 C 231.666 151.824,229.880 152.135,229.000 152.364 C 225.066 153.389,223.180 152.408,225.404 150.495 C 226.519 149.536,231.948 149.402,234.922 150.260 M245.062 152.617 C 245.434 153.588,244.998 153.682,244.202 152.802 C 243.540 152.070,243.535 152.000,244.151 152.000 C 244.522 152.000,244.932 152.278,245.062 152.617 M237.693 156.041 C 242.372 156.751,242.463 156.783,243.918 158.238 C 245.619 159.939,245.592 162.797,243.840 166.625 C 243.268 167.874,242.800 169.461,242.800 170.151 C 242.800 170.841,242.615 172.034,242.390 172.803 C 242.164 173.571,241.817 175.190,241.619 176.400 C 241.421 177.610,240.874 179.860,240.404 181.400 C 239.935 182.940,239.405 184.830,239.227 185.600 C 238.148 190.266,233.804 196.598,230.508 198.308 C 226.750 200.258,217.771 200.571,216.015 198.815 C 215.318 198.118,215.130 163.713,215.810 161.567 C 216.529 159.302,221.920 157.116,228.530 156.409 C 230.251 156.225,231.766 155.968,231.896 155.837 C 232.258 155.475,234.475 155.553,237.693 156.041 M183.081 160.634 C 183.463 161.803,174.691 163.903,169.200 163.958 C 166.042 163.989,165.871 163.950,166.800 163.410 C 167.350 163.090,168.627 162.822,169.637 162.814 C 170.648 162.806,172.538 162.427,173.837 161.970 C 178.735 160.250,182.764 159.668,183.081 160.634 M277.821 162.435 C 277.969 162.674,277.557 163.439,276.906 164.135 C 276.255 164.831,275.305 166.459,274.794 167.752 C 273.744 170.410,271.024 174.615,268.811 177.000 C 267.994 177.880,267.037 179.238,266.683 180.018 C 266.065 181.382,262.746 186.222,261.399 187.725 C 261.042 188.124,260.204 189.384,259.536 190.525 C 258.869 191.666,258.007 192.960,257.621 193.400 C 257.234 193.840,256.158 195.550,255.229 197.200 C 253.490 200.289,250.192 205.117,248.825 206.575 C 248.400 207.029,247.310 208.930,246.403 210.800 C 244.132 215.481,244.193 215.385,243.457 215.529 C 242.528 215.712,242.615 214.060,243.600 212.800 C 244.030 212.250,244.386 211.602,244.391 211.360 C 244.413 210.292,247.483 205.312,251.105 200.471 C 251.487 199.959,252.393 198.444,253.118 197.103 C 253.843 195.762,254.923 194.090,255.518 193.386 C 256.113 192.683,257.140 191.156,257.800 189.991 C 259.773 186.512,259.859 186.384,261.127 185.067 C 261.798 184.370,262.911 182.720,263.600 181.400 C 264.289 180.080,265.354 178.460,265.968 177.800 C 266.938 176.756,272.897 167.866,275.553 163.500 C 276.461 162.006,277.310 161.608,277.821 162.435 M188.847 168.000 C 189.774 174.745,190.013 178.713,190.101 188.800 C 190.227 203.309,189.776 204.480,183.628 205.595 C 174.769 207.201,171.257 204.869,168.007 195.220 C 167.548 193.857,166.743 191.901,166.218 190.871 C 165.693 189.842,164.714 187.830,164.043 186.400 C 163.372 184.970,162.323 182.900,161.711 181.800 C 159.854 178.458,160.242 171.411,162.306 170.988 C 162.908 170.864,164.390 170.507,165.600 170.193 C 166.810 169.880,169.150 169.423,170.800 169.177 C 172.450 168.931,175.060 168.299,176.600 167.772 C 179.375 166.822,184.505 166.034,187.200 166.143 C 188.545 166.198,188.610 166.271,188.847 168.000 M136.072 178.532 C 136.532 179.250,135.615 180.459,134.714 180.324 C 133.512 180.145,132.910 179.031,133.580 178.224 C 134.137 177.553,135.557 177.728,136.072 178.532 M219.287 208.894 C 218.612 209.219,218.252 209.212,217.907 208.867 C 217.551 208.511,217.768 208.406,218.820 208.427 C 220.116 208.452,220.144 208.481,219.287 208.894 M229.288 210.977 L 230.178 211.600 229.315 211.600 C 228.041 211.600,226.317 210.858,226.584 210.425 C 226.889 209.933,228.172 210.195,229.288 210.977 M154.516 212.800 C 154.752 213.701,154.397 213.837,153.680 213.120 C 153.041 212.481,153.073 212.000,153.753 212.000 C 154.058 212.000,154.401 212.360,154.516 212.800 M185.706 215.039 C 186.248 215.581,185.420 216.418,183.950 216.814 C 182.255 217.270,181.600 217.089,181.600 216.164 C 181.600 215.219,184.964 214.297,185.706 215.039 M240.711 215.423 C 241.765 216.161,241.814 216.529,240.971 217.371 C 240.034 218.309,238.163 218.166,237.410 217.100 C 236.235 215.434,238.838 214.111,240.711 215.423 M157.191 217.100 C 159.926 220.631,160.399 221.409,160.386 222.355 L 160.371 223.400 159.486 222.284 C 158.999 221.670,158.028 220.493,157.328 219.667 C 156.001 218.100,155.198 216.000,155.926 216.000 C 156.153 216.000,156.722 216.495,157.191 217.100 M192.787 216.776 C 193.056 217.279,193.064 217.637,192.809 217.794 C 192.243 218.144,190.800 217.277,190.800 216.586 C 190.800 215.727,192.303 215.871,192.787 216.776 M166.670 221.300 C 166.294 221.575,165.909 222.414,165.815 223.163 C 165.557 225.202,162.909 226.052,161.429 224.571 C 160.447 223.590,160.635 223.359,163.208 222.397 C 164.533 221.901,165.714 221.339,165.832 221.148 C 165.950 220.957,166.341 220.800,166.700 220.800 C 167.288 220.800,167.285 220.850,166.670 221.300 M205.934 328.750 C 206.296 331.297,201.647 333.545,200.223 331.511 C 199.286 330.174,199.458 329.728,201.006 329.476 C 201.780 329.351,202.893 328.871,203.480 328.409 C 204.796 327.373,205.757 327.507,205.934 328.750 M348.267 371.867 C 347.841 372.293,347.959 375.600,348.400 375.600 C 348.620 375.600,348.800 374.700,348.800 373.600 C 348.800 371.572,348.744 371.389,348.267 371.867 M347.200 384.200 C 347.200 384.750,347.380 385.200,347.600 385.200 C 347.820 385.200,348.000 384.750,348.000 384.200 C 348.000 383.650,347.820 383.200,347.600 383.200 C 347.380 383.200,347.200 383.650,347.200 384.200 M346.500 388.198 C 345.868 388.916,345.846 390.118,346.469 389.910 C 346.728 389.824,347.004 389.269,347.083 388.677 C 347.247 387.453,347.195 387.409,346.500 388.198 M345.467 393.467 C 345.048 393.885,345.155 395.600,345.600 395.600 C 345.820 395.600,346.000 395.060,346.000 394.400 C 346.000 393.157,345.919 393.015,345.467 393.467 M344.500 396.265 C 343.797 396.549,343.875 397.600,344.600 397.600 C 344.933 397.600,345.200 397.244,345.200 396.800 C 345.200 396.360,345.155 396.014,345.100 396.032 C 345.045 396.049,344.775 396.154,344.500 396.265 " stroke="none" fill="#a13132" fill-rule="evenodd"></path><path id="path1" d="M293.800 5.120 C 292.920 5.187,291.979 5.531,291.708 5.886 C 291.270 6.461,290.915 6.475,288.467 6.013 C 286.651 5.670,284.782 5.597,282.959 5.799 C 281.442 5.966,279.231 6.154,278.046 6.215 C 276.862 6.277,275.778 6.512,275.638 6.739 C 275.497 6.966,274.808 7.135,274.105 7.115 C 273.403 7.095,272.554 7.306,272.219 7.584 C 271.832 7.905,271.064 8.000,270.106 7.844 C 269.277 7.710,267.748 7.487,266.707 7.350 C 265.558 7.198,264.915 6.938,265.070 6.687 C 265.236 6.419,264.987 6.376,264.363 6.566 C 263.833 6.727,263.220 6.844,263.000 6.828 C 257.998 6.448,254.800 6.553,254.800 7.097 C 254.800 7.607,254.701 7.616,254.149 7.158 C 253.002 6.206,250.902 6.334,249.814 7.422 C 248.712 8.525,247.145 8.698,246.400 7.800 C 245.817 7.098,244.287 7.018,243.143 7.631 C 242.279 8.093,239.600 7.148,239.600 6.381 C 239.600 5.950,235.409 5.930,230.500 6.338 C 228.685 6.489,227.200 6.475,227.200 6.306 C 227.200 5.773,223.412 5.976,222.587 6.554 C 221.524 7.299,214.511 7.265,214.222 6.514 C 213.956 5.820,211.196 5.877,210.247 6.596 C 209.594 7.090,209.344 7.088,208.367 6.583 C 206.924 5.837,206.035 5.843,205.745 6.600 C 205.498 7.243,203.600 7.447,203.600 6.831 C 203.600 5.358,197.122 5.413,195.955 6.896 C 195.275 7.759,194.287 7.560,194.643 6.631 C 194.816 6.181,192.748 6.091,182.526 6.105 C 174.899 6.115,169.309 5.948,167.862 5.667 C 166.325 5.369,165.275 5.346,164.800 5.600 C 164.402 5.813,162.807 6.105,161.257 6.249 C 159.706 6.394,158.474 6.683,158.519 6.893 C 158.681 7.652,157.311 8.190,156.638 7.631 C 156.292 7.344,156.093 6.974,156.195 6.808 C 157.165 5.238,152.875 5.064,151.583 6.620 C 151.318 6.939,150.494 7.200,149.751 7.200 C 148.817 7.200,148.400 7.385,148.400 7.800 C 148.400 8.130,148.220 8.400,148.000 8.400 C 147.780 8.400,147.600 8.130,147.600 7.800 C 147.600 7.470,147.285 7.187,146.900 7.172 C 146.300 7.148,146.314 7.093,147.000 6.790 C 147.535 6.553,147.203 6.514,146.000 6.673 C 145.010 6.803,143.901 7.063,143.536 7.250 C 143.157 7.443,142.041 7.409,140.936 7.169 C 136.735 6.256,132.373 6.130,131.491 6.895 C 131.044 7.283,130.347 7.600,129.942 7.600 C 129.538 7.600,128.982 7.960,128.707 8.400 C 128.145 9.300,127.159 9.420,125.894 8.743 C 124.963 8.245,112.538 7.865,111.824 8.313 C 111.591 8.459,111.220 8.595,111.000 8.615 C 108.146 8.869,106.399 9.376,106.394 9.952 C 106.390 10.400,106.294 10.453,106.084 10.122 C 105.858 9.766,105.323 9.749,103.990 10.054 C 102.977 10.286,100.791 10.349,98.954 10.200 C 95.444 9.916,92.146 10.582,90.732 11.862 C 90.173 12.368,89.782 12.433,89.098 12.133 C 87.812 11.570,85.740 12.132,84.610 13.351 C 83.834 14.189,83.269 14.400,81.807 14.400 C 80.423 14.400,79.914 14.571,79.727 15.100 C 79.332 16.212,78.334 17.200,77.605 17.200 C 76.919 17.200,74.400 20.011,74.400 20.777 C 74.400 21.009,73.944 21.200,73.387 21.200 C 72.789 21.200,72.269 21.486,72.115 21.900 C 71.972 22.285,71.151 23.560,70.290 24.733 C 68.416 27.289,67.349 29.631,67.072 31.800 C 66.816 33.795,66.237 35.683,65.211 37.867 C 64.668 39.021,64.365 40.676,64.255 43.079 C 64.167 45.015,63.871 47.081,63.597 47.669 C 63.265 48.383,63.217 49.113,63.453 49.869 C 63.965 51.514,63.679 54.000,62.976 54.000 C 62.628 54.000,62.400 54.396,62.400 55.000 C 62.400 55.647,62.624 56.000,63.035 56.000 C 63.558 56.000,63.621 56.293,63.390 57.661 C 62.957 60.222,62.750 61.985,62.574 64.600 C 62.486 65.920,62.270 67.900,62.094 69.000 C 61.919 70.100,61.872 72.260,61.989 73.800 C 62.107 75.340,62.050 77.410,61.864 78.400 C 61.678 79.390,61.573 81.100,61.631 82.200 C 61.690 83.300,61.688 84.740,61.628 85.400 C 61.504 86.760,61.473 89.313,61.562 90.800 C 61.595 91.350,61.627 92.970,61.633 94.400 C 61.639 95.830,61.655 97.810,61.668 98.800 C 61.687 100.152,61.649 123.817,61.615 132.000 C 61.613 132.550,61.514 137.140,61.394 142.200 C 61.275 147.260,61.214 152.390,61.259 153.600 C 61.303 154.810,61.323 156.340,61.303 157.000 C 61.283 157.660,61.284 163.330,61.306 169.600 C 61.328 175.870,61.336 182.080,61.322 183.400 C 61.309 184.720,61.308 192.460,61.319 200.600 C 61.330 208.740,61.315 216.030,61.287 216.800 C 61.138 220.780,61.180 258.845,61.334 259.101 C 61.433 259.265,61.386 261.740,61.231 264.600 C 61.076 267.460,61.086 271.592,61.254 273.783 C 61.426 276.018,61.405 277.953,61.206 278.192 C 61.012 278.427,60.941 282.394,61.048 287.009 C 61.155 291.624,61.219 300.080,61.190 305.800 C 61.161 311.520,61.169 317.100,61.208 318.200 C 61.323 321.450,61.309 326.082,61.178 327.800 C 61.111 328.680,61.085 330.930,61.119 332.800 C 61.154 334.670,61.170 340.340,61.155 345.400 C 61.140 350.460,61.313 355.832,61.540 357.339 C 61.818 359.193,61.820 360.421,61.545 361.139 C 61.323 361.722,61.059 364.180,60.961 366.600 C 60.862 369.020,60.698 372.800,60.597 375.000 C 60.496 377.200,60.407 379.360,60.398 379.800 C 60.374 381.000,60.807 383.693,61.169 384.600 C 61.345 385.040,61.719 386.120,62.000 387.000 C 63.363 391.262,71.888 395.702,81.200 396.998 C 83.510 397.320,86.210 397.751,87.200 397.956 C 94.475 399.466,288.081 399.807,320.489 398.368 C 330.584 397.920,333.142 397.394,338.666 394.633 C 340.242 393.845,341.730 393.200,341.972 393.200 C 342.361 393.200,342.817 392.362,344.042 389.400 C 347.303 381.512,347.158 390.562,347.052 201.000 C 346.953 25.195,346.984 28.129,345.146 19.080 C 344.111 13.990,343.336 12.704,340.524 11.416 C 339.305 10.859,337.681 9.852,336.914 9.179 C 335.653 8.071,335.441 8.008,334.681 8.513 C 333.926 9.014,333.674 8.954,332.220 7.935 C 331.329 7.310,330.150 6.804,329.600 6.810 C 329.050 6.817,328.150 6.833,327.600 6.847 C 327.050 6.860,325.610 6.566,324.400 6.192 C 321.532 5.306,300.925 4.584,293.800 5.120 M190.757 68.368 C 193.237 69.230,195.580 70.220,195.964 70.568 C 196.349 70.915,196.792 71.200,196.950 71.200 C 197.664 71.200,205.342 75.299,206.310 76.197 C 207.100 76.929,207.835 77.200,209.034 77.200 C 210.780 77.200,211.474 77.730,212.314 79.700 C 212.632 80.445,213.080 80.800,213.702 80.800 C 214.618 80.800,215.901 81.528,217.375 82.886 C 217.802 83.279,218.357 83.600,218.609 83.600 C 219.248 83.600,223.599 86.693,224.431 87.738 C 224.809 88.212,225.596 89.140,226.182 89.800 C 228.993 92.968,229.191 96.687,226.792 101.244 C 225.534 103.633,224.490 105.029,220.565 109.571 C 218.080 112.445,218.000 112.856,218.000 122.676 C 218.000 133.729,218.664 135.599,222.142 134.342 C 223.540 133.837,223.957 133.827,224.800 134.275 C 226.206 135.024,231.233 133.223,234.992 130.624 C 237.745 128.720,240.366 127.336,242.680 126.562 C 243.736 126.209,245.190 125.646,245.910 125.310 C 248.169 124.257,253.072 125.114,255.317 126.954 C 256.288 127.749,257.278 128.400,257.518 128.400 C 257.757 128.400,258.982 129.300,260.239 130.400 C 261.496 131.500,262.659 132.400,262.824 132.400 C 263.226 132.400,266.038 134.751,269.088 137.636 C 270.457 138.931,272.797 140.774,274.288 141.733 C 277.244 143.632,285.321 151.469,287.324 154.380 C 289.936 158.176,289.144 162.591,285.022 167.210 C 283.851 168.523,282.613 170.183,282.273 170.899 C 281.932 171.614,281.326 172.560,280.926 173.000 C 280.527 173.441,279.665 174.521,279.012 175.400 C 277.641 177.247,277.479 177.452,276.339 178.800 C 275.874 179.350,275.168 180.520,274.771 181.400 C 274.374 182.280,273.678 183.397,273.224 183.883 C 272.771 184.369,272.397 184.909,272.392 185.083 C 272.388 185.257,271.758 186.118,270.992 186.996 C 270.227 187.873,269.600 188.792,269.600 189.037 C 269.600 189.282,269.195 189.923,268.700 190.460 C 268.205 190.997,267.284 192.464,266.652 193.718 C 266.021 194.973,265.366 196.000,265.196 196.000 C 265.026 196.000,264.784 196.410,264.658 196.912 C 264.532 197.413,263.883 198.435,263.215 199.184 C 262.547 199.932,262.000 200.690,262.000 200.868 C 262.000 201.140,260.437 203.556,257.775 207.400 C 257.470 207.840,256.599 209.100,255.838 210.200 C 255.078 211.300,253.609 213.640,252.574 215.400 C 248.405 222.490,247.643 223.320,244.430 224.261 C 240.670 225.363,236.269 224.374,233.517 221.809 C 232.922 221.254,232.341 220.800,232.225 220.800 C 232.110 220.800,231.060 220.189,229.892 219.442 C 224.577 216.042,222.300 215.481,218.200 216.563 L 216.200 217.091 216.227 220.046 C 216.242 221.671,216.323 224.170,216.407 225.600 C 216.629 229.363,216.040 267.358,215.716 270.200 C 215.565 271.520,215.426 284.120,215.407 298.200 L 215.373 323.800 214.135 328.400 C 212.042 336.173,210.690 338.412,206.996 340.220 C 201.747 342.788,197.194 340.182,195.080 333.400 C 194.738 332.300,194.155 330.590,193.785 329.600 C 192.776 326.897,191.600 321.748,191.600 320.034 C 191.600 319.201,191.432 317.998,191.227 317.360 C 191.022 316.722,190.750 305.850,190.623 293.200 C 190.237 254.813,189.967 238.073,189.639 232.200 C 189.467 229.120,189.472 226.082,189.650 225.449 C 190.237 223.358,186.543 221.350,185.429 223.154 C 185.308 223.348,184.379 223.632,183.364 223.784 C 181.810 224.018,179.648 225.007,173.794 228.165 C 173.351 228.404,172.451 228.966,171.794 229.414 C 169.082 231.264,164.900 232.555,162.781 232.197 C 160.262 231.771,156.568 228.063,152.624 222.000 C 148.203 215.202,146.864 213.018,145.367 210.162 C 143.780 207.135,142.122 204.450,141.193 203.400 C 140.804 202.960,139.714 201.160,138.773 199.400 C 137.831 197.640,136.642 195.529,136.130 194.708 C 135.619 193.887,135.200 193.137,135.200 193.041 C 135.200 192.945,134.366 191.456,133.348 189.733 C 132.329 188.010,131.035 185.610,130.473 184.400 C 129.911 183.190,128.851 181.246,128.118 180.080 C 127.384 178.914,126.098 176.574,125.259 174.880 C 124.420 173.186,122.893 170.493,121.867 168.896 C 120.840 167.299,120.000 165.877,120.000 165.737 C 120.000 165.388,117.405 162.209,115.211 159.870 C 111.822 156.259,109.798 152.323,110.294 150.310 C 110.963 147.593,115.590 143.765,119.647 142.571 C 120.831 142.223,122.475 141.743,123.300 141.505 C 124.376 141.194,125.224 141.194,126.300 141.505 C 127.125 141.743,128.768 142.223,129.952 142.571 C 132.348 143.276,136.410 145.995,138.324 148.175 C 139.220 149.195,139.906 149.600,140.739 149.600 C 141.379 149.600,142.590 149.887,143.430 150.238 C 144.397 150.642,145.496 150.791,146.422 150.643 C 147.262 150.509,148.749 150.665,149.913 151.011 C 151.811 151.575,152.117 151.560,154.671 150.772 C 161.334 148.718,162.353 148.445,164.959 148.013 C 166.477 147.762,168.406 147.205,169.246 146.776 C 171.130 145.816,175.263 144.814,177.376 144.806 C 178.741 144.801,180.171 144.594,184.734 143.742 C 188.344 143.068,188.592 136.800,185.558 123.000 C 184.300 117.278,183.903 115.852,183.334 115.011 C 183.040 114.577,182.800 113.479,182.800 112.571 C 182.800 111.662,182.640 110.398,182.445 109.760 C 182.250 109.122,181.622 107.070,181.050 105.200 C 180.478 103.330,179.749 100.450,179.429 98.800 C 179.110 97.150,178.481 94.360,178.032 92.600 C 177.582 90.840,177.044 88.590,176.836 87.600 C 176.627 86.610,176.185 84.540,175.854 83.000 C 175.522 81.460,175.155 78.467,175.039 76.348 L 174.828 72.496 176.256 70.663 C 179.523 66.470,183.491 65.841,190.757 68.368 M228.600 158.354 C 226.620 158.737,224.388 159.264,223.640 159.525 C 222.892 159.786,221.600 160.000,220.769 160.000 C 219.590 160.000,218.930 160.309,217.771 161.402 L 216.284 162.804 216.642 165.702 C 216.839 167.296,217.020 174.180,217.044 181.000 C 217.106 198.638,216.973 197.062,218.468 197.835 C 221.758 199.536,231.241 197.606,233.062 194.864 C 234.622 192.515,236.400 188.630,236.400 187.571 C 236.400 186.953,236.575 186.339,236.789 186.207 C 238.038 185.435,240.140 177.942,241.167 170.600 C 241.351 169.280,241.898 167.076,242.382 165.702 C 244.396 159.979,243.488 158.028,238.800 158.005 C 237.370 157.999,235.300 157.918,234.200 157.825 C 233.100 157.733,230.580 157.971,228.600 158.354 M182.200 168.285 C 180.440 168.353,178.640 168.574,178.200 168.776 C 175.689 169.929,172.579 170.770,169.968 171.004 C 167.329 171.240,165.471 171.752,163.609 172.757 C 162.811 173.188,162.487 174.510,162.440 177.540 C 162.397 180.272,162.844 181.548,165.082 185.081 C 165.807 186.225,166.400 187.336,166.400 187.548 C 166.400 187.961,167.649 190.464,168.023 190.800 C 168.145 190.910,168.445 191.540,168.689 192.200 C 168.933 192.860,169.631 194.750,170.239 196.400 C 172.572 202.725,173.632 203.501,180.400 203.844 C 185.328 204.094,186.548 203.609,187.833 200.895 L 188.862 198.718 188.656 187.459 C 188.346 170.514,188.028 167.922,186.285 168.080 C 185.798 168.125,183.960 168.217,182.200 168.285 " stroke="none" fill="#f2f2f6" fill-rule="evenodd"></path><path id="path2" d="M85.433 0.347 C 85.314 0.538,84.089 0.819,82.709 0.972 C 74.173 1.915,63.918 4.395,61.200 6.172 C 60.430 6.676,59.080 7.504,58.200 8.012 C 56.288 9.115,52.451 13.073,52.200 14.200 C 51.707 16.411,51.200 19.894,51.200 21.073 C 51.200 23.210,50.458 22.596,50.266 20.300 C 50.170 19.145,50.168 22.250,50.262 27.200 C 50.356 32.150,50.502 36.830,50.586 37.600 C 50.670 38.370,50.773 39.450,50.816 40.000 C 50.870 40.703,50.947 40.792,51.076 40.300 C 51.176 39.915,51.515 39.600,51.829 39.600 C 52.584 39.600,52.563 38.837,51.800 38.545 C 51.031 38.249,51.020 36.844,51.785 36.550 C 52.106 36.427,52.466 36.022,52.584 35.650 C 52.702 35.278,53.360 34.642,54.045 34.237 C 55.189 33.561,55.274 33.368,55.076 31.890 C 54.853 30.227,55.625 28.400,56.552 28.400 C 57.133 28.400,58.504 25.293,58.165 24.744 C 58.026 24.519,58.383 23.844,58.958 23.243 C 59.570 22.605,60.256 21.165,60.610 19.776 C 61.676 15.593,62.500 13.200,62.872 13.200 C 63.072 13.200,63.192 12.975,63.139 12.700 C 62.970 11.818,63.572 10.596,64.474 9.989 C 64.956 9.665,65.901 8.832,66.575 8.138 C 67.700 6.979,71.264 5.229,74.200 4.395 C 74.860 4.207,77.650 3.852,80.400 3.607 C 83.150 3.361,86.660 2.995,88.200 2.794 C 96.242 1.743,116.207 1.539,208.600 1.562 C 316.867 1.590,312.974 1.538,328.053 3.168 C 332.375 3.635,336.080 5.162,340.052 8.114 C 342.933 10.255,343.605 11.147,344.940 14.600 C 345.358 15.681,345.565 15.923,345.579 15.346 C 345.591 14.876,345.331 13.976,345.002 13.346 C 344.674 12.716,344.390 11.930,344.371 11.600 C 344.226 9.038,341.144 6.442,333.929 2.807 C 332.098 1.884,330.400 0.875,330.156 0.565 C 329.641 -0.090,85.836 -0.306,85.433 0.347 M345.679 17.400 C 345.703 19.209,346.287 21.407,346.353 19.933 C 346.379 19.347,346.625 18.773,346.900 18.658 C 347.273 18.503,347.239 18.317,346.765 17.925 C 346.416 17.636,346.025 17.130,345.896 16.800 C 345.768 16.470,345.670 16.740,345.679 17.400 M346.524 24.200 C 346.526 25.520,346.601 26.012,346.690 25.293 C 346.779 24.574,346.777 23.494,346.686 22.893 C 346.595 22.292,346.522 22.880,346.524 24.200 M347.097 33.696 C 347.294 42.913,347.498 43.411,347.547 34.800 C 347.570 30.950,347.444 27.573,347.268 27.296 C 347.092 27.019,347.015 29.899,347.097 33.696 M50.676 46.750 C 50.286 48.658,50.333 52.311,50.751 52.570 C 51.485 53.024,51.839 48.522,51.236 46.400 C 50.962 45.435,50.942 45.447,50.676 46.750 M50.565 55.400 C 50.009 57.836,50.081 360.641,50.638 361.198 C 52.159 362.719,52.731 242.351,51.830 110.600 C 51.747 98.500,51.661 82.300,51.638 74.600 C 51.587 56.888,51.596 57.302,51.234 55.400 L 50.930 53.800 50.565 55.400 M181.023 68.197 C 175.409 70.197,174.607 73.269,176.844 84.200 C 177.519 87.500,178.163 90.650,178.276 91.200 C 178.388 91.750,178.805 93.370,179.202 94.800 C 179.599 96.230,180.229 98.840,180.602 100.600 C 180.975 102.360,181.642 104.880,182.085 106.200 C 182.528 107.520,183.226 110.130,183.637 112.000 C 184.048 113.870,184.640 116.390,184.953 117.600 C 189.725 136.022,189.788 143.633,185.179 144.537 C 182.816 145.001,178.365 145.685,175.600 146.010 C 172.845 146.333,165.297 148.736,166.896 148.781 C 167.278 148.791,168.538 148.440,169.696 148.000 C 170.853 147.559,174.680 146.743,178.200 146.186 C 186.686 144.843,186.337 144.943,187.864 143.416 C 189.155 142.125,189.200 141.973,189.200 138.892 C 189.200 134.647,186.391 119.233,184.883 115.200 C 184.677 114.650,184.378 113.300,184.218 112.200 C 184.058 111.100,183.417 108.580,182.795 106.600 C 182.173 104.620,181.447 101.920,181.183 100.600 C 180.919 99.280,180.372 97.167,179.969 95.905 C 178.649 91.769,176.408 79.526,176.319 75.958 C 176.215 71.808,176.684 70.877,179.638 69.381 C 184.257 67.040,186.719 67.605,198.800 73.775 C 202.650 75.742,206.814 77.857,208.052 78.475 C 209.291 79.094,210.785 80.230,211.373 81.000 C 212.037 81.870,212.782 82.400,213.343 82.400 C 213.839 82.400,214.865 82.864,215.622 83.432 C 216.380 84.000,218.080 85.010,219.400 85.676 C 224.816 88.411,227.200 91.428,227.200 95.546 C 227.200 98.983,226.244 100.691,219.929 108.538 C 217.138 112.005,216.941 112.876,216.656 123.000 C 216.393 132.309,216.707 136.640,217.691 137.264 C 220.189 138.850,227.805 136.188,239.400 129.676 C 246.884 125.473,251.180 124.938,254.362 127.813 C 255.873 129.179,258.521 131.153,261.400 133.061 C 262.280 133.645,264.530 135.567,266.400 137.332 C 268.270 139.098,271.060 141.350,272.600 142.338 C 274.140 143.325,276.570 145.247,278.000 146.608 C 279.430 147.970,281.833 150.235,283.341 151.642 C 288.599 156.549,288.963 160.493,284.643 165.777 C 283.914 166.670,282.104 169.191,280.621 171.380 C 279.139 173.568,277.154 176.268,276.210 177.380 C 275.266 178.491,274.140 180.066,273.708 180.879 C 273.277 181.693,271.384 184.663,269.502 187.479 C 267.620 190.296,264.938 194.407,263.540 196.616 C 260.298 201.742,260.761 201.030,256.780 207.038 C 254.899 209.877,252.559 213.514,251.580 215.121 C 245.755 224.677,241.600 225.739,232.733 219.936 C 224.366 214.461,221.960 213.736,216.882 215.159 C 214.560 215.810,214.276 216.574,214.706 221.006 C 214.905 223.058,214.902 234.126,214.699 246.800 C 214.503 259.010,214.295 279.440,214.235 292.200 C 214.095 322.223,213.474 329.213,210.417 335.154 C 207.802 340.237,202.038 341.467,198.823 337.628 C 195.420 333.563,191.430 317.345,192.134 310.441 C 192.255 309.253,192.174 298.813,191.953 287.241 C 191.732 275.668,191.492 259.630,191.419 251.600 C 191.265 234.453,190.839 223.189,190.321 222.530 C 189.180 221.078,185.787 220.681,183.756 221.762 C 182.684 222.333,181.636 222.800,181.427 222.800 C 181.219 222.800,178.436 224.268,175.242 226.062 C 161.635 233.705,160.060 233.010,149.234 214.600 C 147.164 211.080,144.340 206.466,142.959 204.348 C 141.578 202.229,140.017 199.619,139.491 198.548 C 138.491 196.512,138.164 195.922,134.405 189.400 C 133.137 187.200,131.150 183.600,129.988 181.400 C 128.827 179.200,127.260 176.237,126.507 174.815 C 123.410 168.969,119.722 163.360,116.794 160.042 C 112.542 155.224,111.530 153.535,111.458 151.135 C 111.414 149.664,111.314 149.378,111.051 149.967 C 110.150 151.978,112.182 155.711,117.340 161.522 C 118.962 163.350,120.537 165.330,120.840 165.922 C 121.142 166.515,122.121 168.170,123.013 169.600 C 123.905 171.030,125.151 173.280,125.781 174.600 C 126.410 175.920,127.262 177.484,127.673 178.075 C 128.083 178.667,129.121 180.571,129.978 182.307 C 130.835 184.042,132.891 187.811,134.547 190.681 C 136.202 193.552,138.218 197.137,139.026 198.650 C 139.835 200.162,141.446 202.840,142.607 204.600 C 143.769 206.360,146.102 210.140,147.792 213.000 C 153.919 223.370,155.048 225.087,157.305 227.473 C 162.283 232.737,164.524 232.650,175.032 226.782 C 178.166 225.032,180.937 223.600,181.190 223.600 C 181.443 223.600,182.642 223.130,183.855 222.557 C 186.199 221.448,188.887 221.659,190.035 223.042 C 190.353 223.425,190.565 231.511,190.758 250.494 C 190.908 265.293,191.157 277.607,191.311 277.856 C 191.466 278.106,191.607 286.655,191.625 296.855 C 191.663 317.765,192.266 324.353,194.658 329.976 C 194.992 330.759,195.590 332.431,195.987 333.691 C 199.246 344.014,209.661 342.198,212.571 330.800 C 212.936 329.370,213.417 327.660,213.639 327.000 C 214.445 324.608,214.743 314.780,215.013 281.600 C 215.286 247.928,215.398 238.158,215.603 229.800 C 215.662 227.380,215.570 223.559,215.399 221.309 C 215.028 216.450,215.108 216.299,218.399 215.600 C 222.604 214.708,225.051 215.537,232.387 220.344 C 240.894 225.916,246.056 225.190,250.456 217.800 C 250.980 216.920,251.767 215.597,252.205 214.860 C 253.072 213.398,258.966 204.412,260.115 202.800 C 261.403 200.992,266.400 193.205,266.400 193.006 C 266.400 192.898,268.084 190.333,270.142 187.305 C 272.200 184.277,274.002 181.427,274.146 180.971 C 274.291 180.514,274.727 179.794,275.115 179.371 C 276.650 177.695,281.244 171.605,282.096 170.115 C 282.593 169.247,283.810 167.597,284.800 166.450 C 289.317 161.212,289.069 156.473,284.023 151.600 C 276.597 144.427,275.268 143.234,274.000 142.600 C 272.276 141.738,269.951 139.870,265.966 136.144 C 264.287 134.573,262.482 133.060,261.956 132.782 C 261.430 132.503,260.261 131.674,259.359 130.938 C 258.456 130.202,257.583 129.600,257.418 129.600 C 257.253 129.600,256.233 128.805,255.153 127.834 C 252.713 125.640,248.539 124.931,245.475 126.189 C 241.680 127.747,240.062 128.551,237.380 130.211 C 230.403 134.531,221.720 137.527,218.834 136.611 C 217.610 136.222,217.200 132.911,217.200 123.403 C 217.200 112.754,217.181 112.821,221.921 106.922 C 230.032 96.830,229.396 89.790,219.981 85.428 C 218.919 84.936,217.419 84.052,216.648 83.464 C 215.877 82.876,214.564 82.171,213.731 81.897 C 212.778 81.585,211.916 80.920,211.408 80.108 C 210.868 79.244,210.093 78.672,209.072 78.385 C 208.231 78.148,206.571 77.332,205.383 76.572 C 196.014 70.579,184.983 66.786,181.023 68.197 M216.182 99.782 C 215.642 100.322,215.200 101.007,215.200 101.304 C 215.200 101.601,214.750 102.455,214.200 103.200 C 212.953 104.890,212.743 107.272,213.942 106.116 C 215.502 104.612,217.600 101.078,217.600 99.955 C 217.600 98.548,217.436 98.528,216.182 99.782 M211.494 107.989 C 210.729 109.079,210.588 110.000,211.186 110.000 C 211.735 110.000,212.475 108.484,212.319 107.679 C 212.210 107.116,212.069 107.168,211.494 107.989 M347.378 145.400 C 347.379 152.440,347.433 155.264,347.499 151.675 C 347.566 148.086,347.566 142.326,347.499 138.875 C 347.433 135.424,347.378 138.360,347.378 145.400 M122.200 142.593 L 120.200 143.136 122.600 142.928 C 127.902 142.470,132.509 144.182,136.200 147.982 C 141.478 153.416,152.747 154.689,160.198 150.693 C 160.639 150.457,162.170 149.950,163.600 149.568 C 165.030 149.185,165.759 148.856,165.219 148.836 C 164.680 148.816,162.699 149.337,160.819 149.993 C 149.688 153.878,142.399 153.219,136.797 147.820 C 133.225 144.379,130.712 143.165,125.200 142.222 C 124.650 142.128,123.300 142.295,122.200 142.593 M116.364 144.814 C 114.914 145.699,113.204 147.003,112.564 147.711 L 111.400 149.000 112.600 147.959 C 114.283 146.499,117.360 144.465,118.900 143.796 C 119.615 143.486,119.930 143.225,119.600 143.218 C 119.270 143.211,117.814 143.929,116.364 144.814 M226.135 149.999 C 225.061 150.433,224.500 151.968,225.248 152.430 C 226.289 153.073,231.538 151.871,232.172 150.845 C 232.747 149.915,227.994 149.250,226.135 149.999 M244.202 152.802 C 244.998 153.682,245.434 153.588,245.062 152.617 C 244.932 152.278,244.522 152.000,244.151 152.000 C 243.535 152.000,243.540 152.070,244.202 152.802 M229.400 156.477 C 227.860 156.672,225.700 157.090,224.600 157.404 C 223.500 157.718,221.970 158.090,221.200 158.230 C 219.600 158.523,217.696 159.589,216.588 160.813 C 215.877 161.599,215.819 162.601,215.678 176.726 C 215.596 185.017,215.508 193.216,215.484 194.947 C 215.432 198.663,215.709 199.006,219.109 199.431 C 221.729 199.758,227.812 199.357,228.746 198.795 C 229.198 198.523,228.844 198.491,227.600 198.691 C 224.067 199.260,218.251 199.056,217.135 198.325 L 216.106 197.651 216.197 179.741 L 216.288 161.832 217.803 160.523 C 218.642 159.797,219.959 159.112,220.758 158.985 C 221.551 158.858,223.730 158.367,225.600 157.892 C 229.979 156.780,239.862 156.694,241.905 157.751 C 244.693 159.193,244.907 160.483,243.229 165.735 C 242.584 167.751,241.761 171.200,241.399 173.400 C 240.636 178.033,239.571 181.738,237.316 187.600 C 235.268 192.923,233.572 195.651,231.514 196.930 C 229.190 198.375,229.028 198.708,231.185 197.608 C 234.261 196.038,236.206 192.580,239.418 182.969 C 241.259 177.460,241.648 175.865,242.385 170.800 C 242.593 169.370,243.238 167.037,243.819 165.616 C 246.943 157.970,242.048 154.868,229.400 156.477 M347.385 178.000 C 347.385 188.450,347.436 192.725,347.500 187.500 C 347.563 182.275,347.563 173.725,347.500 168.500 C 347.436 163.275,347.385 167.550,347.385 178.000 M178.600 160.594 C 177.280 160.894,175.137 161.514,173.837 161.970 C 172.538 162.427,170.648 162.806,169.637 162.814 C 168.627 162.822,167.350 163.101,166.800 163.434 C 164.471 164.843,177.091 163.408,181.520 161.759 C 184.901 160.500,182.760 159.646,178.600 160.594 M276.738 162.486 C 276.379 162.769,274.056 166.060,271.575 169.800 C 269.095 173.540,266.584 177.140,265.997 177.800 C 265.409 178.460,264.339 180.080,263.621 181.400 C 262.902 182.720,261.826 184.340,261.229 185.000 C 259.883 186.489,256.800 191.297,256.800 191.906 C 256.800 192.153,256.171 193.040,255.402 193.878 C 254.633 194.715,254.003 195.582,254.002 195.805 C 254.000 196.156,251.668 199.842,250.715 201.000 C 250.318 201.483,248.807 203.631,247.367 205.763 C 246.009 207.772,244.403 210.793,244.391 211.360 C 244.386 211.602,244.030 212.250,243.600 212.800 C 242.615 214.060,242.528 215.712,243.457 215.529 C 244.193 215.384,244.134 215.480,246.401 210.800 C 247.308 208.930,248.463 206.950,248.968 206.400 C 250.780 204.430,253.997 199.436,256.311 195.000 C 256.656 194.340,257.537 193.093,258.269 192.228 C 259.001 191.363,259.600 190.451,259.600 190.200 C 259.600 189.949,260.193 189.037,260.917 188.172 C 263.433 185.169,266.045 181.457,266.786 179.833 C 267.196 178.935,268.021 177.750,268.620 177.200 C 269.667 176.238,271.625 173.526,273.486 170.460 C 273.973 169.657,274.663 168.100,275.019 167.000 C 275.376 165.900,276.122 164.519,276.678 163.932 C 277.797 162.749,277.845 161.615,276.738 162.486 M182.400 166.598 C 180.310 166.891,177.790 167.477,176.800 167.901 C 175.810 168.324,173.560 168.885,171.800 169.147 C 168.322 169.665,163.512 170.697,162.136 171.221 C 160.046 172.017,160.379 179.437,162.675 183.211 C 163.541 184.635,164.567 186.610,164.954 187.600 C 165.342 188.590,166.085 190.134,166.606 191.032 C 167.128 191.930,167.947 193.820,168.426 195.232 C 171.538 204.392,173.973 206.192,182.033 205.291 C 186.370 204.807,187.540 204.237,188.793 201.998 L 189.800 200.200 189.681 188.200 C 189.615 181.600,189.345 173.950,189.081 171.200 L 188.600 166.200 187.400 166.132 C 186.740 166.095,184.490 166.305,182.400 166.598 M188.014 168.605 C 188.132 169.482,188.358 170.410,188.518 170.668 C 189.078 171.573,189.666 195.574,189.201 198.570 C 188.414 203.644,186.591 204.808,179.338 204.866 C 173.559 204.913,171.287 202.699,168.600 194.400 C 168.208 193.190,167.576 191.750,167.196 191.200 C 166.816 190.650,166.373 189.750,166.212 189.200 C 165.945 188.287,164.644 185.753,162.480 181.930 C 161.270 179.793,161.055 178.006,161.624 174.819 L 162.129 171.993 163.765 171.552 C 164.664 171.309,165.850 170.961,166.400 170.779 C 166.950 170.597,168.570 170.333,170.000 170.192 C 171.430 170.052,173.950 169.467,175.600 168.892 C 178.200 167.987,185.424 166.779,187.200 166.952 C 187.582 166.989,187.878 167.590,188.014 168.605 M133.658 178.291 C 133.152 179.238,133.784 180.400,134.806 180.400 C 135.665 180.400,136.490 179.184,136.072 178.532 C 135.520 177.671,134.068 177.526,133.658 178.291 M347.393 239.600 C 347.393 262.810,347.441 272.305,347.500 260.700 C 347.559 249.095,347.559 230.105,347.500 218.500 C 347.441 206.895,347.393 216.390,347.393 239.600 M51.200 200.600 C 51.200 200.904,51.020 201.264,50.800 201.400 C 50.572 201.541,50.400 201.196,50.400 200.600 C 50.400 200.004,50.572 199.659,50.800 199.800 C 51.020 199.936,51.200 200.296,51.200 200.600 M217.907 208.867 C 218.252 209.212,218.612 209.219,219.287 208.894 C 220.144 208.481,220.116 208.452,218.820 208.427 C 217.768 208.406,217.551 208.511,217.907 208.867 M226.584 210.425 C 226.317 210.858,228.041 211.600,229.315 211.600 L 230.178 211.600 229.288 210.977 C 228.172 210.195,226.889 209.933,226.584 210.425 M182.500 215.212 C 181.576 215.584,181.296 216.565,181.991 216.994 C 183.081 217.668,186.523 215.857,185.706 215.039 C 185.360 214.693,183.548 214.791,182.500 215.212 M237.632 215.500 C 236.832 216.154,236.817 216.260,237.410 217.100 C 238.163 218.166,240.034 218.309,240.971 217.371 C 242.653 215.690,239.537 213.943,237.632 215.500 M155.784 217.100 C 155.933 217.705,156.550 218.740,157.156 219.400 C 157.761 220.060,158.562 221.095,158.937 221.700 C 159.723 222.969,160.400 223.134,160.400 222.055 C 160.400 221.074,156.651 216.000,155.926 216.000 C 155.677 216.000,155.621 216.435,155.784 217.100 M191.705 217.076 C 192.077 217.448,192.493 217.640,192.631 217.503 C 193.024 217.109,192.420 216.400,191.691 216.400 C 191.080 216.400,191.081 216.453,191.705 217.076 M163.800 222.146 C 161.167 223.522,160.974 223.913,162.503 224.781 C 164.088 225.682,165.419 224.895,165.743 222.864 C 165.911 221.815,166.243 221.195,166.700 221.076 C 167.153 220.957,167.188 220.893,166.800 220.892 C 166.470 220.892,165.120 221.456,163.800 222.146 M51.200 225.847 C 51.200 226.412,51.026 226.740,50.800 226.600 C 50.580 226.464,50.400 225.903,50.400 225.353 C 50.400 224.788,50.574 224.460,50.800 224.600 C 51.020 224.736,51.200 225.297,51.200 225.847 M51.200 274.867 C 51.200 280.911,50.716 281.526,50.547 275.697 C 50.442 272.064,50.638 269.600,51.032 269.600 C 51.124 269.600,51.200 271.970,51.200 274.867 M51.200 281.224 C 51.200 281.677,51.020 281.936,50.800 281.800 C 50.580 281.664,50.400 281.293,50.400 280.976 C 50.400 280.659,50.580 280.400,50.800 280.400 C 51.020 280.400,51.200 280.771,51.200 281.224 M51.200 287.576 C 51.200 288.223,51.020 288.864,50.800 289.000 C 50.562 289.147,50.400 288.671,50.400 287.824 C 50.400 287.041,50.580 286.400,50.800 286.400 C 51.020 286.400,51.200 286.929,51.200 287.576 M51.194 294.500 C 51.189 295.486,51.094 295.655,50.800 295.200 C 50.292 294.414,50.292 293.200,50.800 293.200 C 51.020 293.200,51.197 293.785,51.194 294.500 M51.090 300.000 C 51.123 300.440,50.981 300.800,50.775 300.800 C 50.345 300.800,50.269 299.865,50.667 299.467 C 51.029 299.105,51.022 299.096,51.090 300.000 M347.353 308.600 C 347.353 311.240,347.418 312.268,347.497 310.884 C 347.575 309.501,347.574 307.341,347.495 306.084 C 347.416 304.828,347.352 305.960,347.353 308.600 M51.200 315.600 C 51.200 318.604,51.033 320.856,50.800 321.000 C 50.541 321.160,50.400 319.263,50.400 315.600 C 50.400 311.937,50.541 310.040,50.800 310.200 C 51.033 310.344,51.200 312.596,51.200 315.600 M203.241 328.634 C 202.493 329.165,201.543 329.600,201.128 329.600 C 200.160 329.600,199.816 330.508,200.383 331.569 C 201.056 332.827,203.183 332.687,204.475 331.300 C 206.880 328.719,205.950 326.710,203.241 328.634 M347.309 352.400 C 347.309 353.390,347.387 353.795,347.482 353.300 C 347.578 352.805,347.578 351.995,347.482 351.500 C 347.387 351.005,347.309 351.410,347.309 352.400 M347.354 370.400 C 347.354 373.150,347.418 374.275,347.496 372.900 C 347.574 371.525,347.574 369.275,347.496 367.900 C 347.418 366.525,347.354 367.650,347.354 370.400 M50.590 370.683 C 49.922 372.235,49.853 381.631,50.511 381.379 C 50.988 381.196,51.177 381.601,51.394 383.273 C 52.589 392.474,57.657 396.595,71.506 399.627 C 73.567 400.078,84.376 400.052,82.600 399.600 C 81.940 399.432,80.471 399.273,79.336 399.247 C 78.200 399.221,76.130 398.842,74.736 398.405 C 73.341 397.968,71.605 397.608,70.878 397.605 C 70.151 397.602,68.801 397.263,67.878 396.850 C 66.955 396.438,64.400 395.341,62.200 394.413 C 57.027 392.230,56.122 391.498,54.228 387.968 C 52.572 384.881,52.612 385.086,51.617 374.634 C 51.172 369.961,51.070 369.568,50.590 370.683 M346.800 378.387 C 346.800 378.923,346.992 379.101,347.400 378.945 C 347.730 378.818,348.000 378.464,348.000 378.157 C 348.000 377.851,347.730 377.600,347.400 377.600 C 347.070 377.600,346.800 377.954,346.800 378.387 M346.501 381.000 C 346.505 381.880,346.587 382.193,346.683 381.695 C 346.779 381.198,346.775 380.478,346.675 380.095 C 346.575 379.713,346.496 380.120,346.501 381.000 M346.059 384.988 C 345.445 386.686,345.542 386.961,346.434 386.048 C 346.832 385.641,346.979 385.050,346.829 384.458 C 346.609 383.585,346.552 383.624,346.059 384.988 M344.881 388.688 C 344.196 390.975,344.321 391.734,345.043 389.673 C 345.376 388.723,345.584 387.752,345.505 387.515 C 345.426 387.278,345.145 387.806,344.881 388.688 M343.400 393.084 C 342.353 395.016,338.044 397.306,332.600 398.823 L 328.600 399.939 332.138 399.969 C 334.983 399.994,335.885 399.853,336.738 399.252 C 337.322 398.841,338.806 398.032,340.036 397.454 C 342.207 396.433,344.741 393.213,344.330 391.995 C 344.259 391.782,343.840 392.272,343.400 393.084 " stroke="none" fill="#b69c9e" fill-rule="evenodd"></path><path id="path3" d="M120.000 1.665 C 101.336 1.915,92.016 2.315,84.600 3.186 C 82.840 3.393,79.870 3.683,78.000 3.831 C 75.591 4.021,73.823 4.435,71.933 5.250 C 70.466 5.882,69.057 6.400,68.802 6.400 C 68.546 6.400,67.657 7.075,66.825 7.900 C 65.993 8.725,64.927 9.665,64.455 9.989 C 63.568 10.599,62.972 11.827,63.139 12.700 C 63.192 12.975,63.072 13.200,62.872 13.200 C 62.500 13.200,61.676 15.593,60.610 19.776 C 60.256 21.165,59.570 22.605,58.958 23.243 C 58.383 23.844,58.026 24.519,58.165 24.744 C 58.504 25.293,57.133 28.400,56.552 28.400 C 55.625 28.400,54.853 30.227,55.076 31.890 C 55.274 33.368,55.189 33.561,54.045 34.237 C 53.360 34.642,52.702 35.278,52.584 35.650 C 52.466 36.022,52.106 36.427,51.785 36.550 C 51.020 36.844,51.031 38.249,51.800 38.545 C 52.130 38.671,52.400 38.961,52.400 39.187 C 52.400 39.414,52.130 39.600,51.800 39.600 C 51.470 39.600,51.200 39.900,51.200 40.267 C 51.200 40.633,51.116 40.849,51.013 40.746 C 50.909 40.643,50.711 38.858,50.573 36.779 C 50.434 34.701,50.248 32.925,50.160 32.833 C 50.072 32.742,50.036 41.202,50.080 51.633 C 50.137 65.160,50.224 68.286,50.380 62.532 C 50.501 58.095,50.719 54.346,50.865 54.201 C 51.115 53.952,51.679 58.076,51.631 59.800 C 51.578 61.666,51.690 90.237,51.830 110.600 C 52.491 207.328,52.241 341.300,51.369 356.518 C 51.066 361.805,50.554 362.802,50.298 358.600 C 50.217 357.280,50.136 359.980,50.117 364.600 C 50.097 369.414,50.215 372.436,50.395 371.680 C 50.739 370.226,51.189 369.546,51.219 370.433 C 51.244 371.142,51.864 377.543,52.323 381.831 C 53.026 388.389,55.552 391.607,62.200 394.413 C 64.400 395.341,66.955 396.438,67.878 396.850 C 68.801 397.263,70.173 397.600,70.928 397.600 C 71.682 397.600,73.087 397.885,74.050 398.234 C 78.066 399.688,80.292 399.716,205.115 399.862 L 328.030 400.006 331.948 399.013 C 337.763 397.539,342.353 395.055,343.474 392.777 C 344.828 390.024,346.124 385.248,346.235 382.600 L 346.336 380.200 346.020 382.505 C 345.533 386.061,342.831 393.200,341.972 393.200 C 341.730 393.200,340.242 393.845,338.666 394.633 C 333.142 397.394,330.584 397.920,320.489 398.368 C 288.081 399.807,94.475 399.466,87.200 397.956 C 86.210 397.751,83.510 397.320,81.200 396.998 C 71.888 395.702,63.363 391.262,62.000 387.000 C 61.719 386.120,61.345 385.040,61.169 384.600 C 60.807 383.693,60.374 381.000,60.398 379.800 C 60.407 379.360,60.496 377.200,60.597 375.000 C 60.698 372.800,60.862 369.020,60.961 366.600 C 61.059 364.180,61.323 361.722,61.545 361.139 C 61.820 360.421,61.818 359.193,61.540 357.339 C 61.313 355.832,61.140 350.460,61.155 345.400 C 61.170 340.340,61.154 334.670,61.119 332.800 C 61.085 330.930,61.111 328.680,61.178 327.800 C 61.309 326.082,61.323 321.450,61.208 318.200 C 61.169 317.100,61.161 311.520,61.190 305.800 C 61.219 300.080,61.155 291.624,61.048 287.009 C 60.941 282.394,61.012 278.427,61.206 278.192 C 61.405 277.953,61.426 276.018,61.254 273.783 C 61.086 271.592,61.076 267.460,61.231 264.600 C 61.386 261.740,61.433 259.265,61.334 259.101 C 61.180 258.845,61.138 220.780,61.287 216.800 C 61.315 216.030,61.330 208.740,61.319 200.600 C 61.308 192.460,61.309 184.720,61.322 183.400 C 61.336 182.080,61.328 175.870,61.306 169.600 C 61.284 163.330,61.283 157.660,61.303 157.000 C 61.323 156.340,61.303 154.810,61.259 153.600 C 61.214 152.390,61.275 147.260,61.394 142.200 C 61.514 137.140,61.613 132.550,61.615 132.000 C 61.649 123.817,61.687 100.152,61.668 98.800 C 61.655 97.810,61.639 95.830,61.633 94.400 C 61.627 92.970,61.595 91.350,61.562 90.800 C 61.473 89.313,61.504 86.760,61.628 85.400 C 61.688 84.740,61.690 83.300,61.631 82.200 C 61.573 81.100,61.678 79.390,61.864 78.400 C 62.050 77.410,62.107 75.340,61.989 73.800 C 61.872 72.260,61.919 70.100,62.094 69.000 C 62.270 67.900,62.486 65.920,62.574 64.600 C 62.750 61.985,62.957 60.222,63.390 57.661 C 63.621 56.293,63.558 56.000,63.035 56.000 C 62.624 56.000,62.400 55.647,62.400 55.000 C 62.400 54.396,62.628 54.000,62.976 54.000 C 63.679 54.000,63.965 51.514,63.453 49.869 C 63.217 49.113,63.265 48.383,63.597 47.669 C 63.871 47.081,64.167 45.015,64.255 43.079 C 64.365 40.676,64.668 39.021,65.211 37.867 C 66.237 35.683,66.816 33.795,67.072 31.800 C 67.349 29.631,68.416 27.289,70.290 24.733 C 71.151 23.560,71.972 22.285,72.115 21.900 C 72.269 21.486,72.789 21.200,73.387 21.200 C 73.944 21.200,74.400 21.009,74.400 20.777 C 74.400 20.011,76.919 17.200,77.605 17.200 C 78.334 17.200,79.332 16.212,79.727 15.100 C 79.914 14.571,80.423 14.400,81.807 14.400 C 83.269 14.400,83.834 14.189,84.610 13.351 C 85.740 12.132,87.812 11.570,89.098 12.133 C 89.782 12.433,90.173 12.368,90.732 11.862 C 92.146 10.582,95.444 9.916,98.954 10.200 C 100.791 10.349,102.977 10.286,103.990 10.054 C 105.323 9.749,105.858 9.766,106.084 10.122 C 106.294 10.453,106.390 10.400,106.394 9.952 C 106.399 9.376,108.146 8.869,111.000 8.615 C 111.220 8.595,111.591 8.459,111.824 8.313 C 112.538 7.865,124.963 8.245,125.894 8.743 C 127.159 9.420,128.145 9.300,128.707 8.400 C 128.982 7.960,129.538 7.600,129.942 7.600 C 130.347 7.600,131.044 7.283,131.491 6.895 C 132.373 6.130,136.735 6.256,140.936 7.169 C 142.041 7.409,143.157 7.443,143.536 7.250 C 143.901 7.063,145.010 6.803,146.000 6.673 C 147.203 6.514,147.535 6.553,147.000 6.790 C 146.314 7.093,146.300 7.148,146.900 7.172 C 147.285 7.187,147.600 7.470,147.600 7.800 C 147.600 8.130,147.780 8.400,148.000 8.400 C 148.220 8.400,148.400 8.130,148.400 7.800 C 148.400 7.385,148.817 7.200,149.751 7.200 C 150.494 7.200,151.318 6.939,151.583 6.620 C 152.937 4.989,156.648 5.198,156.284 6.885 C 156.119 7.650,157.485 8.193,158.162 7.631 C 158.508 7.344,158.708 6.975,158.607 6.811 C 158.505 6.647,159.695 6.395,161.249 6.250 C 162.804 6.106,164.402 5.813,164.800 5.600 C 165.275 5.346,166.325 5.369,167.862 5.667 C 169.309 5.948,174.899 6.115,182.526 6.105 C 192.748 6.091,194.816 6.181,194.643 6.631 C 194.287 7.560,195.275 7.759,195.955 6.896 C 197.122 5.413,203.600 5.358,203.600 6.831 C 203.600 7.447,205.498 7.243,205.745 6.600 C 206.035 5.843,206.924 5.837,208.367 6.583 C 209.344 7.088,209.594 7.090,210.247 6.596 C 211.196 5.877,213.956 5.820,214.222 6.514 C 214.511 7.265,221.524 7.299,222.587 6.554 C 223.412 5.976,227.200 5.773,227.200 6.306 C 227.200 6.475,228.685 6.489,230.500 6.338 C 235.409 5.930,239.600 5.950,239.600 6.381 C 239.600 7.148,242.279 8.093,243.143 7.631 C 244.287 7.018,245.817 7.098,246.400 7.800 C 247.145 8.698,248.712 8.525,249.814 7.422 C 250.902 6.334,253.002 6.206,254.149 7.158 C 254.701 7.616,254.800 7.607,254.800 7.097 C 254.800 6.553,257.998 6.448,263.000 6.828 C 263.220 6.844,263.833 6.727,264.363 6.566 C 264.987 6.376,265.236 6.419,265.070 6.687 C 264.915 6.938,265.558 7.198,266.707 7.350 C 267.748 7.487,269.277 7.710,270.106 7.844 C 271.064 8.000,271.832 7.905,272.219 7.584 C 272.554 7.306,273.403 7.095,274.105 7.115 C 274.808 7.135,275.497 6.966,275.638 6.739 C 275.778 6.512,276.862 6.277,278.046 6.215 C 279.231 6.154,281.442 5.966,282.959 5.799 C 284.782 5.597,286.651 5.670,288.467 6.013 C 290.997 6.490,291.258 6.474,291.739 5.815 C 292.676 4.535,320.057 4.850,324.400 6.192 C 325.610 6.566,327.050 6.860,327.600 6.847 C 328.150 6.833,329.050 6.817,329.600 6.810 C 330.150 6.804,331.329 7.310,332.220 7.935 C 333.674 8.954,333.926 9.014,334.681 8.513 C 335.441 8.008,335.653 8.071,336.914 9.179 C 337.681 9.852,339.305 10.859,340.524 11.416 C 344.819 13.383,345.736 17.209,346.941 38.200 C 347.004 39.300,347.090 38.130,347.132 35.600 C 347.380 20.586,345.142 11.897,340.052 8.114 C 336.080 5.162,332.375 3.635,328.053 3.168 C 326.154 2.962,322.890 2.615,320.800 2.395 C 312.628 1.535,168.796 1.012,120.000 1.665 M347.309 43.200 C 347.309 44.190,347.387 44.595,347.482 44.100 C 347.578 43.605,347.578 42.795,347.482 42.300 C 347.387 41.805,347.309 42.210,347.309 43.200 M51.560 48.850 C 51.615 50.829,51.179 52.834,50.751 52.570 C 50.333 52.311,50.286 48.658,50.676 46.750 C 51.009 45.118,51.489 46.257,51.560 48.850 M347.393 87.400 C 347.393 110.060,347.441 119.271,347.500 107.869 C 347.559 96.468,347.559 77.928,347.500 66.669 C 347.441 55.411,347.393 64.740,347.393 87.400 M179.720 67.815 C 178.506 68.420,177.107 69.570,176.256 70.663 L 174.828 72.496 175.039 76.348 C 175.155 78.467,175.522 81.460,175.854 83.000 C 176.185 84.540,176.627 86.610,176.836 87.600 C 177.044 88.590,177.582 90.840,178.032 92.600 C 178.481 94.360,179.110 97.150,179.429 98.800 C 179.749 100.450,180.478 103.330,181.050 105.200 C 181.622 107.070,182.250 109.122,182.445 109.760 C 182.640 110.398,182.800 111.662,182.800 112.571 C 182.800 113.479,183.040 114.577,183.334 115.011 C 183.903 115.852,184.300 117.278,185.558 123.000 C 188.592 136.800,188.344 143.068,184.734 143.742 C 180.171 144.594,178.741 144.801,177.376 144.806 C 175.263 144.814,171.130 145.816,169.246 146.776 C 168.406 147.205,166.477 147.762,164.959 148.013 C 162.353 148.445,161.334 148.718,154.671 150.772 C 152.117 151.560,151.811 151.575,149.913 151.011 C 148.749 150.665,147.262 150.509,146.422 150.643 C 145.496 150.791,144.397 150.642,143.430 150.238 C 142.590 149.887,141.379 149.600,140.739 149.600 C 139.906 149.600,139.220 149.195,138.324 148.175 C 136.410 145.995,132.348 143.276,129.952 142.571 C 128.768 142.223,127.125 141.743,126.300 141.505 C 125.224 141.194,124.376 141.194,123.300 141.505 C 122.475 141.743,120.831 142.223,119.647 142.571 C 115.590 143.765,110.963 147.593,110.294 150.310 C 109.798 152.323,111.822 156.259,115.211 159.870 C 117.405 162.209,120.000 165.388,120.000 165.737 C 120.000 165.877,120.840 167.299,121.867 168.896 C 122.893 170.493,124.420 173.186,125.259 174.880 C 126.098 176.574,127.384 178.914,128.118 180.080 C 128.851 181.246,129.911 183.190,130.473 184.400 C 131.035 185.610,132.329 188.010,133.348 189.733 C 134.366 191.456,135.200 192.945,135.200 193.041 C 135.200 193.137,135.619 193.887,136.130 194.708 C 136.642 195.529,137.831 197.640,138.773 199.400 C 139.714 201.160,140.804 202.960,141.193 203.400 C 142.122 204.450,143.780 207.135,145.367 210.162 C 146.864 213.018,148.203 215.202,152.624 222.000 C 156.568 228.063,160.262 231.771,162.781 232.197 C 164.900 232.555,169.082 231.264,171.794 229.414 C 172.451 228.966,173.351 228.404,173.794 228.165 C 179.648 225.007,181.810 224.018,183.364 223.784 C 184.379 223.632,185.308 223.348,185.429 223.154 C 186.543 221.350,190.237 223.358,189.650 225.449 C 189.472 226.082,189.467 229.120,189.639 232.200 C 189.967 238.073,190.237 254.813,190.623 293.200 C 190.750 305.850,191.022 316.722,191.227 317.360 C 191.432 317.998,191.600 319.201,191.600 320.034 C 191.600 321.748,192.776 326.897,193.785 329.600 C 194.155 330.590,194.738 332.300,195.080 333.400 C 197.194 340.182,201.747 342.788,206.996 340.220 C 210.690 338.412,212.042 336.173,214.135 328.400 L 215.373 323.800 215.407 298.200 C 215.426 284.120,215.565 271.520,215.716 270.200 C 216.040 267.358,216.629 229.363,216.407 225.600 C 216.323 224.170,216.242 221.671,216.227 220.046 L 216.200 217.091 218.200 216.563 C 222.300 215.481,224.577 216.042,229.892 219.442 C 231.060 220.189,232.110 220.800,232.225 220.800 C 232.341 220.800,232.922 221.254,233.517 221.809 C 236.269 224.374,240.670 225.363,244.430 224.261 C 247.643 223.320,248.405 222.490,252.574 215.400 C 253.609 213.640,255.078 211.300,255.838 210.200 C 256.599 209.100,257.470 207.840,257.775 207.400 C 260.437 203.556,262.000 201.140,262.000 200.868 C 262.000 200.690,262.547 199.932,263.215 199.184 C 263.883 198.435,264.532 197.413,264.658 196.912 C 264.784 196.410,265.026 196.000,265.196 196.000 C 265.366 196.000,266.021 194.973,266.652 193.718 C 267.284 192.464,268.205 190.997,268.700 190.460 C 269.195 189.923,269.600 189.282,269.600 189.037 C 269.600 188.792,270.227 187.873,270.992 186.996 C 271.758 186.118,272.388 185.257,272.392 185.083 C 272.397 184.909,272.771 184.369,273.224 183.883 C 273.678 183.397,274.374 182.280,274.771 181.400 C 275.168 180.520,275.874 179.350,276.339 178.800 C 277.479 177.452,277.641 177.247,279.012 175.400 C 279.665 174.521,280.527 173.441,280.926 173.000 C 281.326 172.560,281.932 171.614,282.273 170.899 C 282.613 170.183,283.851 168.523,285.022 167.210 C 289.144 162.591,289.936 158.176,287.324 154.380 C 285.321 151.469,277.244 143.632,274.288 141.733 C 272.797 140.774,270.457 138.931,269.088 137.636 C 266.038 134.751,263.226 132.400,262.824 132.400 C 262.659 132.400,261.496 131.500,260.239 130.400 C 258.982 129.300,257.757 128.400,257.518 128.400 C 257.278 128.400,256.288 127.749,255.317 126.954 C 253.072 125.114,248.169 124.257,245.910 125.310 C 245.190 125.646,243.736 126.209,242.680 126.562 C 240.366 127.336,237.745 128.720,234.992 130.624 C 231.233 133.223,226.206 135.024,224.800 134.275 C 223.957 133.827,223.540 133.837,222.142 134.342 C 218.664 135.599,218.000 133.729,218.000 122.676 C 218.000 112.856,218.080 112.445,220.565 109.571 C 224.490 105.029,225.534 103.633,226.792 101.244 C 229.191 96.687,228.993 92.968,226.182 89.800 C 225.596 89.140,224.809 88.212,224.431 87.738 C 223.599 86.693,219.248 83.600,218.609 83.600 C 218.357 83.600,217.802 83.279,217.375 82.886 C 215.901 81.528,214.618 80.800,213.702 80.800 C 213.080 80.800,212.632 80.445,212.314 79.700 C 211.474 77.730,210.780 77.200,209.034 77.200 C 207.835 77.200,207.100 76.929,206.310 76.197 C 205.342 75.299,197.664 71.200,196.950 71.200 C 196.792 71.200,196.349 70.915,195.964 70.568 C 192.862 67.760,183.138 66.112,179.720 67.815 M189.223 68.828 C 193.330 70.321,202.424 74.679,205.383 76.572 C 206.571 77.332,208.231 78.148,209.072 78.385 C 210.093 78.672,210.868 79.244,211.408 80.108 C 211.916 80.920,212.778 81.585,213.731 81.897 C 214.564 82.171,215.877 82.876,216.648 83.464 C 217.419 84.052,218.919 84.936,219.981 85.428 C 229.396 89.790,230.032 96.830,221.921 106.922 C 217.181 112.821,217.200 112.754,217.200 123.403 C 217.200 132.911,217.610 136.222,218.834 136.611 C 221.720 137.527,230.403 134.531,237.380 130.211 C 240.062 128.551,241.680 127.747,245.475 126.189 C 248.539 124.931,252.713 125.640,255.153 127.834 C 256.233 128.805,257.253 129.600,257.418 129.600 C 257.583 129.600,258.456 130.202,259.359 130.938 C 260.261 131.674,261.430 132.503,261.956 132.782 C 262.482 133.060,264.287 134.573,265.966 136.144 C 269.951 139.870,272.276 141.738,274.000 142.600 C 275.268 143.234,276.597 144.427,284.023 151.600 C 289.069 156.473,289.317 161.212,284.800 166.450 C 283.810 167.597,282.593 169.247,282.096 170.115 C 281.244 171.605,276.650 177.695,275.115 179.371 C 274.727 179.794,274.291 180.514,274.146 180.971 C 274.002 181.427,272.200 184.277,270.142 187.305 C 268.084 190.333,266.400 192.898,266.400 193.006 C 266.400 193.205,261.403 200.992,260.115 202.800 C 258.966 204.412,253.072 213.398,252.205 214.860 C 251.767 215.597,250.980 216.920,250.456 217.800 C 247.550 222.682,246.102 223.630,241.475 223.684 C 237.747 223.727,237.304 223.565,232.387 220.344 C 225.051 215.537,222.604 214.708,218.399 215.600 C 215.108 216.299,215.028 216.450,215.399 221.309 C 215.570 223.559,215.662 227.380,215.603 229.800 C 215.398 238.158,215.286 247.928,215.013 281.600 C 214.743 314.780,214.445 324.608,213.639 327.000 C 213.417 327.660,212.936 329.370,212.571 330.800 C 209.661 342.198,199.246 344.014,195.987 333.691 C 195.590 332.431,194.992 330.759,194.658 329.976 C 192.266 324.353,191.663 317.765,191.625 296.855 C 191.607 286.655,191.466 278.106,191.311 277.856 C 191.157 277.607,190.908 265.293,190.758 250.494 C 190.565 231.511,190.353 223.425,190.035 223.042 C 188.887 221.659,186.199 221.448,183.855 222.557 C 182.642 223.130,181.443 223.600,181.190 223.600 C 180.937 223.600,178.166 225.032,175.032 226.782 C 164.524 232.650,162.283 232.737,157.305 227.473 C 155.048 225.087,153.919 223.370,147.792 213.000 C 146.102 210.140,143.769 206.360,142.607 204.600 C 141.446 202.840,139.835 200.162,139.026 198.650 C 138.218 197.137,136.202 193.552,134.547 190.681 C 132.891 187.811,130.835 184.042,129.978 182.307 C 129.121 180.571,128.083 178.667,127.673 178.075 C 127.262 177.484,126.410 175.920,125.781 174.600 C 125.151 173.280,123.905 171.030,123.013 169.600 C 122.121 168.170,121.142 166.515,120.840 165.922 C 120.537 165.330,118.962 163.350,117.340 161.522 C 112.225 155.759,110.288 152.243,110.997 150.008 C 112.225 146.142,122.468 140.981,126.143 142.378 C 126.753 142.610,127.645 142.800,128.126 142.800 C 129.911 142.801,134.085 145.207,136.742 147.767 C 142.403 153.223,149.646 153.893,160.819 149.993 C 162.699 149.337,164.605 148.800,165.052 148.800 C 165.500 148.800,167.651 148.174,169.833 147.409 C 172.015 146.643,174.420 146.013,175.177 146.009 C 176.354 146.001,181.976 145.175,185.179 144.540 C 189.788 143.624,189.725 136.023,184.953 117.600 C 184.640 116.390,184.048 113.870,183.637 112.000 C 183.226 110.130,182.528 107.520,182.085 106.200 C 181.642 104.880,180.975 102.360,180.602 100.600 C 180.229 98.840,179.599 96.230,179.202 94.800 C 178.805 93.370,178.388 91.750,178.276 91.200 C 178.163 90.650,177.519 87.500,176.844 84.200 C 174.906 74.732,175.212 71.894,178.423 69.516 C 181.364 67.339,184.568 67.135,189.223 68.828 M347.309 131.200 C 347.309 132.190,347.387 132.595,347.482 132.100 C 347.578 131.605,347.578 130.795,347.482 130.300 C 347.387 129.805,347.309 130.210,347.309 131.200 M346.967 147.000 C 346.967 151.180,347.026 152.836,347.098 150.679 C 347.171 148.523,347.170 145.103,347.098 143.079 C 347.025 141.056,346.966 142.820,346.967 147.000 M229.295 157.184 C 228.137 157.365,226.067 157.796,224.695 158.141 C 223.323 158.485,221.551 158.868,220.758 158.991 C 219.950 159.116,218.651 159.790,217.803 160.523 L 216.288 161.832 216.197 179.741 C 216.092 200.270,215.748 198.529,220.008 199.029 C 229.239 200.112,233.614 197.223,237.316 187.600 C 239.571 181.738,240.636 178.033,241.399 173.400 C 241.761 171.200,242.584 167.751,243.229 165.735 C 244.881 160.566,244.679 159.185,242.075 157.839 C 240.751 157.154,232.263 156.719,229.295 157.184 M238.800 158.005 C 243.488 158.028,244.396 159.979,242.382 165.702 C 241.898 167.076,241.351 169.280,241.167 170.600 C 240.140 177.942,238.038 185.435,236.789 186.207 C 236.575 186.339,236.400 186.953,236.400 187.571 C 236.400 188.630,234.622 192.515,233.062 194.864 C 231.241 197.606,221.758 199.536,218.468 197.835 C 216.973 197.062,217.106 198.638,217.044 181.000 C 217.020 174.180,216.839 167.296,216.642 165.702 L 216.284 162.804 217.771 161.402 C 218.930 160.309,219.590 160.000,220.769 160.000 C 221.600 160.000,222.892 159.786,223.640 159.525 C 226.229 158.621,232.209 157.658,234.200 157.825 C 235.300 157.918,237.370 157.999,238.800 158.005 M346.893 167.600 C 346.893 168.370,346.975 168.685,347.076 168.300 C 347.176 167.915,347.176 167.285,347.076 166.900 C 346.975 166.515,346.893 166.830,346.893 167.600 M182.600 167.371 C 180.400 167.633,177.250 168.318,175.600 168.892 C 173.950 169.467,171.430 170.052,170.000 170.192 C 168.570 170.333,166.950 170.597,166.400 170.779 C 165.850 170.961,164.664 171.309,163.765 171.552 L 162.129 171.993 161.624 174.819 C 161.055 178.006,161.270 179.793,162.480 181.930 C 164.644 185.753,165.945 188.287,166.212 189.200 C 166.373 189.750,166.816 190.650,167.196 191.200 C 167.576 191.750,168.208 193.190,168.600 194.400 C 171.287 202.699,173.559 204.913,179.338 204.866 C 186.591 204.808,188.414 203.644,189.201 198.570 C 189.666 195.574,189.078 171.573,188.518 170.668 C 188.358 170.410,188.132 169.482,188.014 168.605 C 187.761 166.720,187.861 166.743,182.600 167.371 M187.640 169.700 C 188.281 172.013,188.416 174.380,188.656 187.459 L 188.862 198.718 187.833 200.895 C 186.548 203.609,185.328 204.094,180.400 203.844 C 173.632 203.501,172.572 202.725,170.239 196.400 C 169.631 194.750,168.933 192.860,168.689 192.200 C 168.445 191.540,168.145 190.910,168.023 190.800 C 167.649 190.464,166.400 187.961,166.400 187.548 C 166.400 187.336,165.807 186.225,165.082 185.081 C 162.844 181.548,162.397 180.272,162.440 177.540 C 162.487 174.510,162.811 173.188,163.609 172.757 C 165.471 171.752,167.329 171.240,169.968 171.004 C 172.579 170.770,175.689 169.929,178.200 168.776 C 178.640 168.574,180.440 168.353,182.200 168.285 C 183.960 168.217,185.798 168.125,186.285 168.080 C 187.009 168.015,187.255 168.308,187.640 169.700 M346.968 186.600 C 346.968 191.000,347.026 192.855,347.098 190.721 C 347.170 188.588,347.170 184.988,347.099 182.721 C 347.027 180.455,346.968 182.200,346.968 186.600 M346.975 214.200 C 346.975 220.140,347.031 222.626,347.099 219.724 C 347.167 216.822,347.167 211.962,347.099 208.924 C 347.031 205.886,346.975 208.260,346.975 214.200 M346.978 240.600 C 346.978 247.420,347.032 250.266,347.099 246.925 C 347.166 243.584,347.166 238.004,347.099 234.525 C 347.033 231.046,346.978 233.780,346.978 240.600 M346.920 257.200 C 346.920 258.410,346.995 258.905,347.087 258.300 C 347.178 257.695,347.178 256.705,347.087 256.100 C 346.995 255.495,346.920 255.990,346.920 257.200 M346.946 275.400 C 346.947 277.600,347.014 278.449,347.095 277.287 C 347.176 276.124,347.176 274.324,347.093 273.287 C 347.011 272.249,346.945 273.200,346.946 275.400 M347.376 292.800 C 347.376 299.070,347.432 301.635,347.499 298.500 C 347.567 295.365,347.567 290.235,347.499 287.100 C 347.432 283.965,347.376 286.530,347.376 292.800 M346.920 310.800 C 346.920 312.010,346.995 312.505,347.087 311.900 C 347.178 311.295,347.178 310.305,347.087 309.700 C 346.995 309.095,346.920 309.590,346.920 310.800 M347.109 328.700 C 347.049 337.225,347.101 345.730,347.225 347.600 C 347.349 349.470,347.484 342.495,347.525 332.100 C 347.566 321.705,347.514 313.200,347.409 313.200 C 347.304 313.200,347.169 320.175,347.109 328.700 M347.360 359.800 C 347.361 363.100,347.422 364.397,347.498 362.682 C 347.573 360.967,347.572 358.267,347.497 356.682 C 347.421 355.097,347.359 356.500,347.360 359.800 M346.681 374.548 C 346.505 377.159,346.460 379.394,346.581 379.514 C 346.701 379.635,346.800 379.253,346.800 378.667 C 346.800 377.985,347.017 377.600,347.400 377.600 C 348.071 377.600,348.231 375.992,347.621 375.380 C 347.413 375.171,347.188 373.830,347.121 372.400 C 347.019 370.211,346.950 370.550,346.681 374.548 " stroke="none" fill="#cec6c9" fill-rule="evenodd"></path><path id="path4" d="M56.000 0.558 C 56.000 0.865,55.553 1.540,55.007 2.058 C 54.461 2.576,54.011 3.187,54.007 3.417 C 54.003 3.646,53.370 4.501,52.600 5.318 C 51.830 6.134,51.200 7.084,51.200 7.429 C 51.200 7.775,50.930 8.327,50.600 8.657 C 49.937 9.321,49.793 13.825,50.259 19.340 C 50.515 22.369,51.200 23.631,51.200 21.073 C 51.200 19.894,51.707 16.411,52.200 14.200 C 52.451 13.073,56.288 9.115,58.200 8.012 C 59.080 7.504,60.430 6.676,61.200 6.172 C 63.918 4.395,74.173 1.915,82.709 0.972 C 88.628 0.318,84.743 -0.000,70.824 -0.000 C 58.409 -0.000,56.000 0.091,56.000 0.558 M330.081 0.443 C 330.162 0.687,332.022 1.823,334.214 2.968 C 341.675 6.866,344.221 9.015,344.369 11.540 C 344.386 11.836,344.654 12.646,344.965 13.340 C 345.276 14.033,345.640 15.258,345.776 16.061 C 345.911 16.865,346.287 17.624,346.611 17.749 C 347.427 18.062,347.418 15.075,346.600 14.257 C 346.210 13.867,346.000 12.876,346.000 11.429 C 346.000 10.203,345.820 9.200,345.600 9.200 C 345.380 9.200,345.200 8.772,345.200 8.249 C 345.200 7.726,344.930 7.074,344.600 6.800 C 344.255 6.514,343.988 5.600,343.972 4.651 C 343.950 3.362,343.868 3.175,343.600 3.800 C 343.276 4.554,343.255 4.547,343.228 3.671 C 343.213 3.161,342.930 2.473,342.600 2.143 C 342.270 1.813,342.000 1.196,342.000 0.771 C 342.000 0.044,341.659 0.000,335.967 0.000 C 331.731 0.000,329.977 0.132,330.081 0.443 M346.628 22.700 C 346.780 24.845,347.061 26.903,347.252 27.274 C 347.447 27.652,347.631 104.261,347.670 201.874 C 347.708 297.533,347.810 374.990,347.895 374.000 C 347.981 373.010,348.219 372.029,348.425 371.820 C 348.957 371.281,348.932 33.329,348.400 33.000 C 348.160 32.852,348.000 30.186,348.000 26.348 C 348.000 21.330,347.876 19.819,347.429 19.371 C 346.429 18.372,346.346 18.716,346.628 22.700 M182.000 68.374 C 177.251 69.824,176.207 71.292,176.335 76.337 C 176.463 81.319,176.799 81.629,176.802 76.767 C 176.805 72.006,177.284 71.122,180.600 69.758 C 185.131 67.893,189.201 69.071,202.400 76.064 C 204.050 76.938,206.520 78.181,207.889 78.826 C 209.553 79.609,210.576 80.380,210.974 81.151 C 211.591 82.343,212.323 82.800,213.619 82.800 C 214.033 82.800,214.963 83.311,215.686 83.935 C 216.409 84.559,218.075 85.590,219.389 86.225 C 225.751 89.303,228.659 95.147,225.999 99.510 C 225.559 100.230,225.206 100.950,225.212 101.110 C 225.219 101.269,225.668 100.680,226.210 99.800 C 229.196 94.953,226.436 89.229,219.400 85.676 C 218.080 85.010,216.380 84.000,215.622 83.432 C 214.865 82.864,213.839 82.400,213.343 82.400 C 212.782 82.400,212.037 81.870,211.373 81.000 C 210.785 80.230,209.291 79.094,208.052 78.475 C 206.814 77.857,202.650 75.742,198.800 73.775 C 188.451 68.489,185.125 67.420,182.000 68.374 M176.887 81.400 C 176.891 81.840,177.032 82.740,177.200 83.400 C 177.474 84.478,177.506 84.498,177.513 83.600 C 177.517 83.050,177.376 82.150,177.200 81.600 C 176.949 80.816,176.881 80.773,176.887 81.400 M178.868 91.600 C 178.888 92.639,179.518 94.346,179.532 93.400 C 179.538 92.960,179.389 92.240,179.200 91.800 C 178.989 91.310,178.861 91.232,178.868 91.600 M223.826 103.100 C 222.962 104.205,222.893 104.390,223.563 103.804 C 224.365 103.104,225.423 101.600,225.114 101.600 C 225.051 101.600,224.472 102.275,223.826 103.100 M211.707 109.519 C 211.299 110.116,211.190 110.126,210.827 109.600 C 210.486 109.107,210.411 109.163,210.406 109.914 C 210.400 110.858,211.558 110.638,212.218 109.571 C 212.666 108.847,212.199 108.799,211.707 109.519 M216.560 119.800 C 216.561 123.100,216.622 124.397,216.698 122.682 C 216.773 120.967,216.772 118.267,216.697 116.682 C 216.621 115.097,216.559 116.500,216.560 119.800 M185.229 116.000 C 185.232 116.110,185.496 117.190,185.816 118.400 C 186.367 120.481,186.387 120.504,186.185 118.838 C 186.019 117.472,185.207 115.060,185.229 116.000 M244.400 127.153 C 242.970 127.756,240.450 129.030,238.800 129.984 C 237.150 130.938,234.563 132.330,233.052 133.078 C 231.540 133.825,230.384 134.517,230.482 134.615 C 230.580 134.713,231.996 134.112,233.630 133.279 C 236.416 131.858,237.294 131.372,241.437 128.954 C 244.384 127.233,247.831 126.321,250.247 126.623 C 252.447 126.898,253.115 127.284,257.400 130.754 C 258.500 131.645,260.030 132.728,260.800 133.161 C 261.570 133.595,264.000 135.688,266.200 137.813 C 268.537 140.071,271.115 142.147,272.400 142.806 C 273.610 143.427,275.882 145.165,277.448 146.668 C 279.014 148.170,281.399 150.357,282.747 151.527 C 286.901 155.132,287.977 158.077,286.646 162.200 C 286.504 162.640,286.653 162.460,286.976 161.800 C 288.552 158.583,287.436 155.464,283.341 151.642 C 281.833 150.235,279.430 147.970,278.000 146.608 C 276.570 145.247,274.140 143.325,272.600 142.338 C 271.060 141.350,268.270 139.098,266.400 137.332 C 264.530 135.567,262.280 133.645,261.400 133.061 C 258.290 130.999,255.785 129.125,254.531 127.922 C 252.294 125.773,248.376 125.476,244.400 127.153 M216.447 134.700 C 216.383 137.006,217.398 138.019,219.700 137.947 L 221.400 137.893 219.517 137.630 C 217.205 137.307,217.219 137.321,216.819 134.939 L 216.494 133.000 216.447 134.700 M189.331 139.000 C 189.333 140.540,189.405 141.121,189.492 140.291 C 189.579 139.461,189.577 138.201,189.489 137.491 C 189.400 136.781,189.329 137.460,189.331 139.000 M223.400 137.009 C 222.266 137.301,221.833 137.527,222.400 137.531 C 222.950 137.535,224.120 137.301,225.000 137.011 C 227.042 136.338,226.016 136.337,223.400 137.009 M120.836 143.234 C 116.375 144.110,111.376 148.281,111.457 151.059 C 111.510 152.859,112.993 156.341,113.493 155.840 C 113.600 155.733,113.308 155.113,112.844 154.461 C 110.325 150.925,111.990 148.034,118.583 144.497 C 123.557 141.829,131.671 143.692,136.400 148.588 C 141.877 154.259,150.740 155.155,160.585 151.033 C 161.457 150.668,163.707 150.031,165.585 149.618 C 167.463 149.204,169.810 148.495,170.800 148.042 C 172.822 147.116,172.444 146.888,170.343 147.766 C 169.598 148.077,167.281 148.730,165.194 149.216 C 163.107 149.702,160.946 150.331,160.390 150.613 C 152.418 154.670,141.547 153.487,136.200 147.982 C 132.024 143.682,126.791 142.065,120.836 143.234 M186.841 144.234 C 186.087 144.770,184.840 145.227,184.041 145.260 C 182.765 145.313,182.731 145.339,183.743 145.491 C 185.094 145.693,186.868 145.030,187.833 143.963 C 188.717 142.987,188.521 143.040,186.841 144.234 M179.200 146.000 C 177.850 146.284,177.843 146.295,179.000 146.300 C 179.660 146.303,180.740 146.168,181.400 146.000 C 183.060 145.578,181.207 145.578,179.200 146.000 M173.300 147.076 C 173.685 147.176,174.315 147.176,174.700 147.076 C 175.085 146.975,174.770 146.893,174.000 146.893 C 173.230 146.893,172.915 146.975,173.300 147.076 M231.917 150.270 C 232.313 150.430,232.325 150.608,231.968 151.039 C 231.580 151.506,231.806 151.600,233.327 151.600 C 235.207 151.600,236.124 150.977,235.151 150.361 C 234.848 150.169,233.880 150.024,233.000 150.038 C 232.120 150.052,231.633 150.156,231.917 150.270 M224.552 151.381 C 224.282 152.085,224.673 152.802,225.324 152.794 C 225.632 152.790,225.604 152.663,225.242 152.434 C 224.935 152.240,224.794 151.793,224.929 151.440 C 225.064 151.088,225.085 150.800,224.975 150.800 C 224.865 150.800,224.675 151.061,224.552 151.381 M231.281 155.940 C 230.776 156.083,232.126 156.213,234.281 156.229 C 236.604 156.247,237.711 156.144,237.000 155.977 C 235.481 155.620,232.480 155.600,231.281 155.940 M115.000 158.000 C 115.859 158.880,116.652 159.600,116.762 159.600 C 116.872 159.600,116.259 158.880,115.400 158.000 C 114.541 157.120,113.748 156.400,113.638 156.400 C 113.528 156.400,114.141 157.120,115.000 158.000 M225.266 156.751 C 224.954 156.949,225.618 157.016,226.866 156.913 C 229.797 156.671,230.195 156.468,227.800 156.438 C 226.700 156.424,225.560 156.565,225.266 156.751 M239.505 156.683 C 240.002 156.779,240.722 156.775,241.105 156.675 C 241.487 156.575,241.080 156.496,240.200 156.501 C 239.320 156.505,239.007 156.587,239.505 156.683 M222.600 157.600 C 221.493 157.882,221.477 157.909,222.400 157.947 C 222.950 157.969,223.670 157.813,224.000 157.600 C 224.681 157.160,224.329 157.160,222.600 157.600 M116.800 160.125 C 116.800 160.194,117.385 160.779,118.100 161.425 L 119.400 162.600 118.225 161.300 C 117.130 160.088,116.800 159.816,116.800 160.125 M276.629 163.962 L 275.458 165.400 276.809 164.113 C 277.551 163.405,278.078 162.758,277.979 162.675 C 277.881 162.592,277.273 163.171,276.629 163.962 M215.314 165.400 C 215.317 166.500,215.395 166.903,215.487 166.295 C 215.579 165.686,215.577 164.786,215.482 164.295 C 215.387 163.803,215.311 164.300,215.314 165.400 M243.708 165.878 C 243.217 167.127,242.877 168.210,242.953 168.286 C 243.170 168.504,244.862 164.385,244.724 163.975 C 244.656 163.773,244.198 164.629,243.708 165.878 M283.524 166.700 C 282.959 167.305,282.292 168.250,282.041 168.800 C 281.652 169.651,281.659 169.687,282.092 169.038 C 282.371 168.619,283.114 167.674,283.741 166.938 C 285.117 165.326,284.962 165.157,283.524 166.700 M121.949 167.000 C 122.165 167.440,122.634 168.160,122.993 168.600 L 123.644 169.400 123.251 168.600 C 123.035 168.160,122.566 167.440,122.207 167.000 L 121.556 166.200 121.949 167.000 M215.765 176.000 C 215.765 179.850,215.825 181.425,215.898 179.500 C 215.971 177.575,215.971 174.425,215.898 172.500 C 215.825 170.575,215.765 172.150,215.765 176.000 M242.501 170.600 C 242.505 171.480,242.587 171.793,242.683 171.295 C 242.779 170.798,242.775 170.078,242.675 169.695 C 242.575 169.313,242.496 169.720,242.501 170.600 M189.309 173.200 C 189.309 174.190,189.387 174.595,189.482 174.100 C 189.578 173.605,189.578 172.795,189.482 172.300 C 189.387 171.805,189.309 172.210,189.309 173.200 M160.893 173.200 C 160.893 173.970,160.975 174.285,161.076 173.900 C 161.176 173.515,161.176 172.885,161.076 172.500 C 160.975 172.115,160.893 172.430,160.893 173.200 M160.514 177.400 C 160.517 178.500,160.595 178.903,160.687 178.295 C 160.779 177.686,160.777 176.786,160.682 176.295 C 160.587 175.803,160.511 176.300,160.514 177.400 M189.761 181.600 C 189.761 185.010,189.822 186.405,189.897 184.700 C 189.972 182.995,189.972 180.205,189.897 178.500 C 189.822 176.795,189.761 178.190,189.761 181.600 M239.361 182.941 C 238.239 186.273,237.022 189.675,236.655 190.500 C 235.541 193.010,236.233 192.176,237.761 189.168 C 238.553 187.611,239.200 186.042,239.200 185.682 C 239.200 185.321,239.447 184.301,239.749 183.413 C 240.975 179.809,241.722 177.189,241.565 177.039 C 241.474 176.952,240.482 179.608,239.361 182.941 M215.314 190.200 C 215.317 191.300,215.395 191.703,215.487 191.095 C 215.579 190.486,215.577 189.586,215.482 189.095 C 215.387 188.603,215.311 189.100,215.314 190.200 M190.153 193.400 C 190.153 196.040,190.218 197.068,190.297 195.684 C 190.375 194.301,190.374 192.141,190.295 190.884 C 190.216 189.628,190.152 190.760,190.153 193.400 M166.012 190.620 C 166.006 190.851,166.184 191.224,166.409 191.449 C 166.634 191.674,167.350 193.362,168.000 195.200 C 168.650 197.038,169.367 198.727,169.594 198.954 C 169.820 199.180,169.554 198.214,169.003 196.807 C 168.451 195.400,167.999 194.057,167.998 193.824 C 167.995 193.257,166.028 190.083,166.012 190.620 M229.800 198.293 C 229.140 198.657,227.880 199.077,227.000 199.227 C 225.456 199.490,225.446 199.502,226.716 199.550 C 227.882 199.594,231.200 198.293,231.200 197.792 C 231.200 197.529,231.162 197.543,229.800 198.293 M189.660 199.320 C 189.595 200.525,188.702 202.515,187.652 203.793 C 187.035 204.543,187.040 204.555,187.729 204.020 C 188.848 203.151,190.066 200.464,189.884 199.270 L 189.720 198.200 189.660 199.320 M216.176 198.970 C 216.604 199.317,217.414 199.582,217.976 199.559 C 218.918 199.521,218.900 199.494,217.765 199.223 C 217.086 199.061,216.276 198.796,215.965 198.634 C 215.654 198.473,215.749 198.624,216.176 198.970 M50.400 200.600 C 50.400 201.196,50.572 201.541,50.800 201.400 C 51.020 201.264,51.200 200.904,51.200 200.600 C 51.200 200.296,51.020 199.936,50.800 199.800 C 50.572 199.659,50.400 200.004,50.400 200.600 M220.500 199.891 C 221.325 199.978,222.675 199.978,223.500 199.891 C 224.325 199.805,223.650 199.734,222.000 199.734 C 220.350 199.734,219.675 199.805,220.500 199.891 M172.774 204.135 C 173.900 205.377,176.196 206.114,178.875 206.094 C 181.527 206.075,186.347 205.210,186.664 204.696 C 186.842 204.408,186.676 204.368,186.166 204.575 C 182.722 205.972,175.383 205.727,173.256 204.144 L 171.800 203.062 172.774 204.135 M145.735 208.684 C 148.137 212.934,151.696 218.800,151.873 218.800 C 151.969 218.800,151.969 218.665,151.873 218.500 C 150.324 215.836,146.839 209.801,146.101 208.504 C 145.570 207.571,144.976 206.709,144.781 206.588 C 144.586 206.467,145.015 207.411,145.735 208.684 M253.302 211.700 C 252.736 212.415,251.940 214.000,252.146 214.000 C 252.242 214.000,252.693 213.370,253.147 212.600 C 253.973 211.201,254.049 210.757,253.302 211.700 M190.800 216.586 C 190.800 217.450,192.362 218.199,192.943 217.613 C 193.287 217.267,193.242 217.213,192.764 217.395 C 192.403 217.532,191.885 217.340,191.564 216.949 C 191.056 216.329,191.089 216.284,191.901 216.493 C 192.396 216.621,192.700 216.562,192.577 216.363 C 192.212 215.772,190.800 215.950,190.800 216.586 M249.095 218.500 C 248.161 219.908,246.279 221.864,245.400 222.342 C 244.897 222.615,244.811 222.780,245.169 222.788 C 245.786 222.801,248.882 219.741,249.591 218.417 C 250.178 217.320,249.841 217.376,249.095 218.500 M152.587 220.375 C 152.921 221.021,153.376 221.661,153.598 221.799 C 153.820 221.936,153.623 221.407,153.161 220.624 C 152.148 218.907,151.735 218.728,152.587 220.375 M161.300 223.065 C 160.383 223.435,161.390 225.200,162.518 225.200 C 162.771 225.200,162.569 224.914,162.070 224.564 C 161.350 224.059,161.259 223.811,161.630 223.364 C 162.124 222.768,162.097 222.743,161.300 223.065 M241.900 223.082 C 242.395 223.178,243.205 223.178,243.700 223.082 C 244.195 222.987,243.790 222.909,242.800 222.909 C 241.810 222.909,241.405 222.987,241.900 223.082 M154.959 223.979 C 155.958 225.539,159.651 229.600,160.070 229.600 C 160.280 229.600,159.556 228.655,158.461 227.500 C 157.365 226.345,155.988 224.860,155.401 224.200 C 154.619 223.322,154.500 223.263,154.959 223.979 M190.951 228.000 C 190.951 230.530,191.016 231.565,191.096 230.300 C 191.175 229.035,191.175 226.965,191.096 225.700 C 191.016 224.435,190.951 225.470,190.951 228.000 M176.700 224.827 C 175.875 225.263,175.200 225.708,175.200 225.818 C 175.200 225.927,175.920 225.649,176.800 225.200 C 177.680 224.751,178.400 224.297,178.400 224.192 C 178.400 223.930,178.397 223.931,176.700 224.827 M214.924 226.200 C 214.926 227.520,215.001 228.012,215.090 227.293 C 215.179 226.574,215.177 225.494,215.086 224.893 C 214.995 224.292,214.922 224.880,214.924 226.200 M50.400 225.353 C 50.400 225.903,50.580 226.464,50.800 226.600 C 51.026 226.740,51.200 226.412,51.200 225.847 C 51.200 225.297,51.020 224.736,50.800 224.600 C 50.574 224.460,50.400 224.788,50.400 225.353 M173.126 226.814 C 172.315 227.242,171.546 227.764,171.416 227.973 C 171.287 228.183,171.995 227.899,172.991 227.343 C 173.986 226.787,174.800 226.257,174.800 226.166 C 174.800 225.934,174.772 225.944,173.126 226.814 M191.309 235.600 C 191.309 236.590,191.387 236.995,191.482 236.500 C 191.578 236.005,191.578 235.195,191.482 234.700 C 191.387 234.205,191.309 234.610,191.309 235.600 M214.531 241.000 C 214.533 242.540,214.605 243.121,214.692 242.291 C 214.779 241.461,214.777 240.201,214.689 239.491 C 214.600 238.781,214.529 239.460,214.531 241.000 M191.350 245.400 C 191.351 247.820,191.416 248.758,191.496 247.485 C 191.576 246.212,191.575 244.232,191.494 243.085 C 191.414 241.938,191.349 242.980,191.350 245.400 M214.565 254.400 C 214.565 258.250,214.625 259.825,214.698 257.900 C 214.771 255.975,214.771 252.825,214.698 250.900 C 214.625 248.975,214.565 250.550,214.565 254.400 M191.693 252.800 C 191.693 253.570,191.775 253.885,191.876 253.500 C 191.976 253.115,191.976 252.485,191.876 252.100 C 191.775 251.715,191.693 252.030,191.693 252.800 M191.701 259.800 C 191.705 260.680,191.787 260.993,191.883 260.495 C 191.979 259.998,191.975 259.278,191.875 258.895 C 191.775 258.513,191.696 258.920,191.701 259.800 M191.301 264.200 C 191.305 265.080,191.387 265.393,191.483 264.895 C 191.579 264.398,191.575 263.678,191.475 263.295 C 191.375 262.913,191.296 263.320,191.301 264.200 M50.649 270.700 C 50.362 272.168,50.588 279.521,50.930 279.863 C 51.079 280.012,51.200 277.763,51.200 274.867 C 51.200 269.638,51.061 268.588,50.649 270.700 M214.137 273.800 C 214.139 275.560,214.209 276.230,214.293 275.289 C 214.378 274.349,214.377 272.909,214.291 272.089 C 214.205 271.270,214.136 272.040,214.137 273.800 M191.724 273.400 C 191.726 274.720,191.801 275.212,191.890 274.493 C 191.979 273.774,191.977 272.694,191.886 272.093 C 191.795 271.492,191.722 272.080,191.724 273.400 M50.400 280.976 C 50.400 281.293,50.580 281.664,50.800 281.800 C 51.020 281.936,51.200 281.677,51.200 281.224 C 51.200 280.771,51.020 280.400,50.800 280.400 C 50.580 280.400,50.400 280.659,50.400 280.976 M213.751 285.200 C 213.751 287.730,213.816 288.765,213.896 287.500 C 213.975 286.235,213.975 284.165,213.896 282.900 C 213.816 281.635,213.751 282.670,213.751 285.200 M192.161 300.000 C 192.185 309.409,192.306 313.627,192.483 311.316 C 192.639 309.290,192.622 302.540,192.444 296.316 L 192.121 285.000 192.161 300.000 M50.400 287.824 C 50.400 288.671,50.562 289.147,50.800 289.000 C 51.020 288.864,51.200 288.223,51.200 287.576 C 51.200 286.929,51.020 286.400,50.800 286.400 C 50.580 286.400,50.400 287.041,50.400 287.824 M214.134 295.200 C 214.134 296.850,214.205 297.525,214.291 296.700 C 214.378 295.875,214.378 294.525,214.291 293.700 C 214.205 292.875,214.134 293.550,214.134 295.200 M50.406 293.900 C 50.409 294.285,50.587 294.870,50.800 295.200 C 51.094 295.655,51.189 295.486,51.194 294.500 C 51.197 293.785,51.020 293.200,50.800 293.200 C 50.580 293.200,50.403 293.515,50.406 293.900 M50.667 299.467 C 50.269 299.865,50.345 300.800,50.775 300.800 C 50.981 300.800,51.123 300.440,51.090 300.000 C 51.022 299.096,51.029 299.105,50.667 299.467 M213.709 300.800 C 213.709 301.790,213.787 302.195,213.882 301.700 C 213.978 301.205,213.978 300.395,213.882 299.900 C 213.787 299.405,213.709 299.810,213.709 300.800 M214.150 309.000 C 214.151 311.420,214.216 312.358,214.296 311.085 C 214.376 309.812,214.375 307.832,214.294 306.685 C 214.214 305.538,214.149 306.580,214.150 309.000 M50.400 315.600 C 50.400 319.263,50.541 321.160,50.800 321.000 C 51.033 320.856,51.200 318.604,51.200 315.600 C 51.200 312.596,51.033 310.344,50.800 310.200 C 50.541 310.040,50.400 311.937,50.400 315.600 M192.493 316.400 C 192.493 317.170,192.575 317.485,192.676 317.100 C 192.776 316.715,192.776 316.085,192.676 315.700 C 192.575 315.315,192.493 315.630,192.493 316.400 M213.720 317.200 C 213.720 318.410,213.795 318.905,213.887 318.300 C 213.978 317.695,213.978 316.705,213.887 316.100 C 213.795 315.495,213.720 315.990,213.720 317.200 M192.909 319.600 C 192.909 320.590,192.987 320.995,193.082 320.500 C 193.178 320.005,193.178 319.195,193.082 318.700 C 192.987 318.205,192.909 318.610,192.909 319.600 M196.800 334.708 C 196.800 337.005,203.302 341.232,204.693 339.840 C 204.803 339.730,203.934 339.513,202.760 339.357 C 200.558 339.065,200.412 338.957,198.004 335.845 C 197.342 334.990,196.800 334.478,196.800 334.708 M209.794 335.500 C 209.410 336.105,208.625 337.140,208.048 337.800 L 207.000 339.000 208.336 337.800 C 209.506 336.748,211.109 334.400,210.656 334.400 C 210.566 334.400,210.178 334.895,209.794 335.500 M347.021 379.300 C 346.651 380.506,346.528 383.485,346.811 384.400 L 347.120 385.400 347.160 384.300 C 347.182 383.695,347.380 383.200,347.600 383.200 C 347.820 383.200,348.000 382.210,348.000 381.000 C 348.000 379.011,347.420 378.003,347.021 379.300 M50.267 381.467 C 49.396 382.337,50.009 392.687,51.000 393.838 C 51.549 394.477,51.999 395.231,52.000 395.513 C 52.000 395.794,52.270 396.129,52.600 396.255 C 52.930 396.382,53.200 396.694,53.200 396.948 C 53.200 397.202,53.650 397.748,54.200 398.161 C 54.750 398.574,55.200 399.157,55.200 399.456 C 55.200 399.899,56.818 399.995,63.900 399.972 C 70.925 399.949,75.561 399.355,69.708 399.228 C 68.535 399.203,67.259 398.774,61.000 396.304 C 55.328 394.066,52.246 389.893,51.396 383.300 C 51.138 381.305,50.868 380.866,50.267 381.467 M346.229 386.229 C 345.883 386.574,345.600 387.125,345.600 387.453 C 345.600 391.123,342.720 396.189,339.855 397.558 C 335.211 399.778,335.215 400.007,339.900 399.951 L 344.000 399.901 344.000 398.193 C 344.000 397.044,344.196 396.410,344.600 396.255 C 344.947 396.122,345.200 395.524,345.200 394.836 C 345.200 394.182,345.380 393.536,345.600 393.400 C 345.820 393.264,346.000 392.161,346.000 390.948 C 346.000 389.521,346.212 388.531,346.600 388.143 C 347.132 387.611,347.471 385.600,347.029 385.600 C 346.934 385.600,346.574 385.883,346.229 386.229 " stroke="none" fill="#898487" fill-rule="evenodd"></path></g></svg>